<svg width="145" height="45" viewBox="0 0 145 45" fill="none" xmlns="http://www.w3.org/2000/svg">
<path d="M9.31077 44.9978C8.93609 44.9978 8.57051 44.9932 8.19878 44.9852C7.42877 44.9756 6.66054 44.9115 5.90042 44.7934C5.19164 44.6766 4.50503 44.4593 3.86324 44.1488C3.2273 43.8408 2.64728 43.437 2.14539 42.9528C1.6362 42.4743 1.21227 41.9194 0.8904 41.31C0.565018 40.6966 0.339834 40.0391 0.222692 39.3604C0.0962308 38.6312 0.0278289 37.8938 0.0180761 37.1546C0.0102062 36.9065 0 36.0806 0 36.0806V8.90471C0 8.90471 0.010821 8.09134 0.0180761 7.8523C0.0274455 7.11434 0.0954782 6.37814 0.221585 5.65006C0.338959 4.96953 0.564333 4.31015 0.889908 3.69475C1.21054 3.08572 1.63206 2.53034 2.13814 2.05013C2.64368 1.56536 3.22558 1.15947 3.86262 0.84725C4.50296 0.537734 5.18828 0.322043 5.89562 0.207401C6.65826 0.088137 7.42916 0.0236854 8.20186 0.0145874L9.31138 0H135.682L136.805 0.0149404C137.571 0.0236432 138.335 0.0875859 139.09 0.206225C139.805 0.322337 140.497 0.539569 141.145 0.850779C142.421 1.47996 143.46 2.4754 144.115 3.69757C144.435 4.30875 144.657 4.96279 144.773 5.63747C144.9 6.37151 144.972 7.11348 144.986 7.85747C144.99 8.19063 144.99 8.54849 144.99 8.90471C145 9.34586 145 9.76572 145 10.1891V34.8097C145 35.2371 145 35.6541 144.99 36.0746C144.99 36.4572 144.99 36.8076 144.985 37.1683C144.971 37.8991 144.901 38.6278 144.775 39.3488C144.66 40.0323 144.436 40.6949 144.111 41.3134C143.787 41.9162 143.365 42.4663 142.862 42.9435C142.36 43.4303 141.779 43.8365 141.141 44.1464C140.496 44.4593 139.804 44.6774 139.09 44.7932C138.33 44.912 137.562 44.9761 136.792 44.9851C136.424 44.9933 136.056 44.9975 135.688 44.9976L134.355 45L9.31077 44.9978Z" fill="#2E2E2E"/>
<path d="M29.384 22.8527C29.3973 21.8708 29.6699 20.9081 30.1765 20.0541C30.6832 19.2001 31.4074 18.4825 32.2817 17.9682C31.7263 17.2093 30.9935 16.5847 30.1415 16.144C29.2896 15.7034 28.342 15.4589 27.374 15.4299C25.3091 15.2225 23.3073 16.6119 22.2549 16.6119C21.1824 16.6119 19.5623 15.4505 17.8178 15.4848C16.6894 15.5197 15.5896 15.8336 14.6257 16.396C13.6618 16.9584 12.8666 17.75 12.3175 18.6938C9.93937 22.633 11.7133 28.4222 13.9915 31.6062C15.1313 33.1654 16.4632 34.907 18.2063 34.8452C19.9118 34.7776 20.5488 33.8047 22.6077 33.8047C24.6475 33.8047 25.2451 34.8452 27.0235 34.8059C28.8537 34.7776 30.0067 33.2399 31.1066 31.666C31.9255 30.555 32.5556 29.3272 32.9737 28.0279C31.9104 27.5977 31.003 26.8775 30.3646 25.9572C29.7263 25.0369 29.3853 23.9572 29.384 22.8527ZM26.0251 13.3358C27.023 12.1897 27.5146 10.7166 27.3956 9.22939C25.871 9.38258 24.4627 10.0797 23.4513 11.1818C22.9568 11.7202 22.5781 12.3465 22.3367 13.025C22.0954 13.7036 21.9963 14.4209 22.0449 15.1361C22.8075 15.1437 23.5619 14.9855 24.2513 14.6737C24.9408 14.3618 25.5473 13.9044 26.0251 13.3358V13.3358ZM50.9442 30.8981H45.1237L43.726 34.8466H41.2605L46.7737 20.238H49.3351L54.8482 34.8466H52.3408L50.9442 30.8981ZM45.7265 29.076H50.3402L48.0658 22.6679H48.0021L45.7265 29.076ZM66.7545 29.5219C66.7545 32.8316 64.9028 34.958 62.1085 34.958C61.4006 34.9935 60.6966 34.8375 60.0771 34.5079C59.4576 34.1784 58.9476 33.6886 58.6055 33.0946H58.5527V38.3701H56.2675V24.1958H58.4795V25.9673H58.5216C58.8793 25.3762 59.3979 24.889 60.0221 24.5574C60.6463 24.2258 61.3528 24.0624 62.0664 24.0844C64.8919 24.0844 66.7545 26.2212 66.7545 29.5217V29.5219ZM64.4056 29.5219C64.4056 27.3655 63.2409 25.9478 61.4636 25.9478C59.7175 25.9478 58.5432 27.3953 58.5432 29.5217C58.5432 31.6679 59.7175 33.1051 61.4636 33.1051C63.2409 33.1051 64.4056 31.6977 64.4056 29.5217V29.5219ZM79.0079 29.5219C79.0079 32.8316 77.1562 34.958 74.3618 34.958C73.654 34.9935 72.95 34.8375 72.3305 34.5079C71.711 34.1784 71.2011 33.6886 70.859 33.0946H70.8061V38.3701H68.5209V24.1958H70.7329V25.9673H70.7749C71.1327 25.3762 71.6513 24.889 72.2755 24.5574C72.8997 24.2258 73.6062 24.0624 74.3198 24.0844C77.1454 24.0844 79.0079 26.2212 79.0079 29.5217V29.5219ZM76.6591 29.5219C76.6591 27.3655 75.4942 25.9478 73.717 25.9478C71.9709 25.9478 70.7965 27.3953 70.7965 29.5217C70.7965 31.6679 71.9709 33.1051 73.717 33.1051C75.4942 33.1051 76.6591 31.6977 76.6591 29.5217V29.5219ZM87.1064 30.7764C87.2758 32.225 88.7468 33.1763 90.7569 33.1763C92.6831 33.1763 94.0689 32.225 94.0689 30.9187C94.0689 29.7848 93.2331 29.1059 91.2542 28.6406L89.2751 28.1845C86.4712 27.5366 85.1695 26.282 85.1695 24.2463C85.1695 21.7257 87.4655 19.9945 90.7257 19.9945C93.9524 19.9945 96.1644 21.7257 96.2388 24.2463H93.9319C93.7938 22.7884 92.5342 21.9084 90.6933 21.9084C88.8524 21.9084 87.5928 22.7988 87.5928 24.0946C87.5928 25.1275 88.3973 25.7352 90.3654 26.2004L92.0478 26.5957C95.1808 27.3044 96.4826 28.5085 96.4826 30.6452C96.4826 33.3784 94.207 35.0902 90.5876 35.0902C87.2011 35.0902 84.9148 33.4185 84.7671 30.7763L87.1064 30.7764ZM101.414 21.6753V24.1958H103.532V25.9271H101.414V31.7988C101.414 32.711 101.838 33.136 102.769 33.136C103.02 33.1318 103.271 33.1149 103.521 33.0854V34.8065C103.102 34.8813 102.677 34.9151 102.251 34.9075C99.9975 34.9075 99.1184 34.0976 99.1184 32.032V25.9271H97.4997V24.1958H99.1184V21.6753H101.414ZM104.758 29.5219C104.758 26.1706 106.821 24.0649 110.038 24.0649C113.266 24.0649 115.319 26.1706 115.319 29.5219C115.319 32.8822 113.276 34.9788 110.038 34.9788C106.8 34.9788 104.758 32.8822 104.758 29.5219ZM112.991 29.5219C112.991 27.223 111.889 25.8662 110.038 25.8662C108.186 25.8662 107.086 27.2333 107.086 29.5219C107.086 31.8299 108.186 33.1763 110.038 33.1763C111.889 33.1763 112.991 31.8299 112.991 29.5219ZM117.203 24.1958H119.383V26.0086H119.436C119.583 25.4424 119.93 24.9421 120.417 24.5916C120.905 24.2412 121.504 24.0621 122.113 24.0844C122.377 24.0835 122.639 24.1108 122.896 24.1659V26.2109C122.564 26.1137 122.217 26.069 121.87 26.0787C121.538 26.0659 121.207 26.1219 120.899 26.2429C120.592 26.3639 120.316 26.5471 120.09 26.7799C119.864 27.0127 119.693 27.2896 119.589 27.5916C119.485 27.8935 119.451 28.2134 119.488 28.5292V34.8466H117.203V24.1958ZM133.433 31.7183C133.125 33.6519 131.157 34.9788 128.639 34.9788C125.4 34.9788 123.39 32.9029 123.39 29.5723C123.39 26.2316 125.411 24.0649 128.543 24.0649C131.623 24.0649 133.56 26.0891 133.56 29.3185V30.0675H125.697V30.1996C125.66 30.5916 125.712 30.9865 125.847 31.358C125.983 31.7296 126.199 32.0693 126.482 32.3546C126.766 32.64 127.109 32.8644 127.49 33.013C127.871 33.1616 128.281 33.231 128.692 33.2165C129.232 33.2649 129.774 33.1453 130.237 32.8753C130.7 32.6054 131.06 32.1996 131.263 31.7183H133.433ZM125.708 28.5396H131.273C131.294 28.1871 131.238 27.8344 131.109 27.5036C130.981 27.1728 130.782 26.871 130.525 26.6171C130.269 26.3633 129.961 26.1629 129.619 26.0285C129.278 25.8942 128.912 25.8287 128.543 25.8363C128.171 25.8342 127.802 25.9026 127.457 26.0376C127.113 26.1726 126.8 26.3715 126.536 26.6228C126.273 26.8741 126.064 27.1729 125.922 27.5019C125.779 27.8309 125.707 28.1835 125.708 28.5396V28.5396ZM45.4401 9.24198C45.9192 9.20908 46.4 9.27832 46.8477 9.44471C47.2955 9.61109 47.699 9.87047 48.0293 10.2041C48.3596 10.5378 48.6083 10.9374 48.7576 11.3742C48.9069 11.811 48.953 12.274 48.8925 12.7299C48.8925 14.9724 47.6256 16.2615 45.4401 16.2615H42.7898V9.24186L45.4401 9.24198ZM43.9295 15.2687H45.3129C45.6552 15.2883 45.9978 15.2346 46.3157 15.1115C46.6336 14.9884 46.9188 14.7991 47.1506 14.5572C47.3824 14.3154 47.5549 14.0272 47.6555 13.7136C47.7562 13.3999 47.7825 13.0687 47.7325 12.7441C47.7788 12.4208 47.7499 12.0917 47.6477 11.7804C47.5455 11.469 47.3726 11.1832 47.1413 10.9432C46.9101 10.7033 46.6262 10.5153 46.3101 10.3927C45.994 10.2701 45.6535 10.2159 45.3129 10.2339H43.9295V15.2687ZM50.1799 13.6105C50.1451 13.2623 50.1867 12.9111 50.3021 12.5793C50.4174 12.2474 50.6041 11.9423 50.8499 11.6835C51.0958 11.4248 51.3955 11.218 51.7297 11.0765C52.064 10.935 52.4255 10.8619 52.7911 10.8619C53.1566 10.8619 53.5181 10.935 53.8524 11.0765C54.1867 11.218 54.4864 11.4248 54.7322 11.6835C54.9781 11.9423 55.1647 12.2474 55.2801 12.5793C55.3955 12.9111 55.4371 13.2623 55.4023 13.6105C55.4378 13.959 55.3968 14.3108 55.2817 14.6432C55.1667 14.9757 54.9802 15.2814 54.7343 15.5408C54.4884 15.8001 54.1884 16.0074 53.8538 16.1493C53.5191 16.2911 53.1571 16.3644 52.7911 16.3644C52.425 16.3644 52.063 16.2911 51.7284 16.1493C51.3937 16.0074 51.0938 15.8001 50.8478 15.5408C50.6019 15.2814 50.4154 14.9757 50.3004 14.6432C50.1854 14.3108 50.1443 13.959 50.1799 13.6105ZM54.2783 13.6105C54.2783 12.4622 53.7391 11.7907 52.7929 11.7907C51.843 11.7907 51.3087 12.4622 51.3087 13.6105C51.3087 14.7679 51.8431 15.4342 52.7929 15.4342C53.7391 15.4342 54.2783 14.7633 54.2783 13.6105V13.6105ZM62.3445 16.2614H61.2107L60.0664 12.3599H59.9799L58.8404 16.2614H57.7176L56.1913 10.964H57.2996L58.2916 15.0061H58.3733L59.5117 10.964H60.56L61.6984 15.0061H61.7848L62.7719 10.964H63.8647L62.3445 16.2614ZM65.1483 10.9641H66.2003V11.8056H66.282C66.4205 11.5033 66.6541 11.25 66.9503 11.0808C67.2465 10.9116 67.5905 10.835 67.9344 10.8618C68.2038 10.8424 68.4743 10.8813 68.7259 10.9755C68.9775 11.0697 69.2037 11.2169 69.3877 11.4061C69.5718 11.5953 69.709 11.8217 69.7892 12.0686C69.8694 12.3154 69.8905 12.5763 69.8509 12.832V16.2613H68.7581V13.0946C68.7581 12.2434 68.3714 11.82 67.5633 11.82C67.3804 11.8118 67.1978 11.8416 67.028 11.9073C66.8582 11.973 66.7053 12.073 66.5798 12.2005C66.4542 12.328 66.3589 12.48 66.3005 12.646C66.242 12.812 66.2218 12.9882 66.2411 13.1624V16.2614H65.1483V10.9641ZM71.5921 8.89611H72.6848V16.2614H71.5921V8.89611ZM74.2039 13.6105C74.1691 13.2623 74.2107 12.911 74.3262 12.5791C74.4416 12.2472 74.6282 11.9421 74.8741 11.6833C75.12 11.4245 75.4197 11.2177 75.754 11.0761C76.0884 10.9346 76.4499 10.8615 76.8155 10.8615C77.1811 10.8615 77.5427 10.9346 77.877 11.0761C78.2113 11.2177 78.511 11.4245 78.7569 11.6833C79.0028 11.9421 79.1895 12.2472 79.3049 12.5791C79.4203 12.911 79.4619 13.2623 79.4271 13.6105C79.4625 13.9589 79.4213 14.3106 79.3061 14.643C79.191 14.9753 79.0044 15.2809 78.7585 15.5402C78.5125 15.7995 78.2126 16.0066 77.878 16.1484C77.5434 16.2902 77.1815 16.3634 76.8155 16.3634C76.4495 16.3634 76.0876 16.2902 75.753 16.1484C75.4184 16.0066 75.1185 15.7995 74.8725 15.5402C74.6266 15.2809 74.44 14.9753 74.3249 14.643C74.2098 14.3106 74.1686 13.9589 74.2039 13.6105V13.6105ZM78.3024 13.6105C78.3024 12.4622 77.7632 11.7907 76.817 11.7907C75.8671 11.7907 75.3328 12.4622 75.3328 13.6105C75.3328 14.7679 75.8672 15.4342 76.817 15.4342C77.7632 15.4342 78.3024 14.7633 78.3024 13.6105ZM80.5774 14.7633C80.5774 13.8097 81.3195 13.26 82.6369 13.1819L84.1367 13.0992V12.6419C84.1367 12.0824 83.7501 11.7666 83.0032 11.7666C82.3931 11.7666 81.9704 11.9808 81.8491 12.3553H80.7911C80.9028 11.4454 81.7975 10.8619 83.0536 10.8619C84.4418 10.8619 85.2247 11.523 85.2247 12.6419V16.2614H84.1727V15.5169H84.0863C83.9108 15.784 83.6644 16.0017 83.3722 16.1478C83.08 16.2939 82.7525 16.3632 82.4231 16.3487C82.1907 16.3718 81.9558 16.3481 81.7335 16.279C81.5112 16.21 81.3065 16.0971 81.1326 15.9478C80.9587 15.7984 80.8195 15.6158 80.7239 15.4118C80.6282 15.2078 80.5783 14.9869 80.5774 14.7633V14.7633ZM84.1367 14.3107V13.8677L82.7845 13.9504C82.022 13.9993 81.6761 14.2475 81.6761 14.7144C81.6761 15.1912 82.1085 15.4687 82.7029 15.4687C82.8771 15.4856 83.053 15.4688 83.2203 15.4192C83.3875 15.3697 83.5426 15.2885 83.6764 15.1805C83.8102 15.0724 83.9199 14.9397 83.9989 14.7903C84.078 14.6409 84.1249 14.4778 84.1367 14.3107V14.3107ZM86.6609 13.6105C86.6609 11.9365 87.5603 10.8762 88.9593 10.8762C89.3054 10.861 89.6488 10.9403 89.9495 11.1048C90.2502 11.2694 90.4957 11.5125 90.6573 11.8056H90.739V8.896H91.8317V16.2613H90.7846V15.4242H90.6982C90.5241 15.7154 90.27 15.9554 89.9635 16.1184C89.657 16.2813 89.3098 16.3609 88.9594 16.3485C87.5507 16.3485 86.6609 15.2881 86.6609 13.6103V13.6105ZM87.7898 13.6105C87.7898 14.7339 88.3434 15.4101 89.2691 15.4101C90.1901 15.4101 90.7594 14.7243 90.7594 13.6149C90.7594 12.511 90.1842 11.8154 89.2691 11.8154C88.3493 11.8154 87.7898 12.496 87.7898 13.6105ZM96.3529 13.6105C96.3181 13.2623 96.3597 12.9111 96.4751 12.5793C96.5905 12.2474 96.7771 11.9423 97.0229 11.6835C97.2688 11.4248 97.5685 11.218 97.9028 11.0765C98.237 10.935 98.5985 10.8619 98.9641 10.8619C99.3296 10.8619 99.6911 10.935 100.025 11.0765C100.36 11.218 100.659 11.4248 100.905 11.6835C101.151 11.9423 101.338 12.2474 101.453 12.5793C101.568 12.9111 101.61 13.2623 101.575 13.6105C101.611 13.959 101.57 14.3108 101.455 14.6432C101.34 14.9757 101.153 15.2814 100.907 15.5408C100.661 15.8001 100.361 16.0074 100.027 16.1493C99.6921 16.2911 99.3301 16.3644 98.9641 16.3644C98.5981 16.3644 98.2361 16.2911 97.9014 16.1493C97.5667 16.0074 97.2668 15.8001 97.0209 15.5408C96.7749 15.2814 96.5884 14.9757 96.4734 14.6432C96.3584 14.3108 96.3173 13.959 96.3529 13.6105V13.6105ZM100.451 13.6105C100.451 12.4622 99.9122 11.7907 98.9659 11.7907C98.016 11.7907 97.4817 12.4622 97.4817 13.6105C97.4817 14.7679 98.0161 15.4342 98.9659 15.4342C99.9122 15.4342 100.451 14.7633 100.451 13.6105ZM103.042 10.9641H104.094V11.8056H104.175C104.314 11.5033 104.547 11.25 104.844 11.0808C105.14 10.9116 105.484 10.835 105.828 10.8618C106.097 10.8424 106.368 10.8813 106.619 10.9755C106.871 11.0697 107.097 11.2169 107.281 11.4061C107.465 11.5953 107.602 11.8217 107.682 12.0686C107.763 12.3154 107.784 12.5763 107.744 12.832V16.2613H106.651V13.0946C106.651 12.2434 106.265 11.82 105.456 11.82C105.274 11.8118 105.091 11.8416 104.921 11.9073C104.751 11.973 104.599 12.073 104.473 12.2005C104.347 12.328 104.252 12.48 104.194 12.646C104.135 12.812 104.115 12.9882 104.134 13.1624V16.2614H103.042L103.042 10.9641ZM113.919 9.64525V10.9882H115.119V11.8688H113.919V14.5926C113.919 15.1476 114.158 15.3906 114.702 15.3906C114.841 15.3901 114.98 15.382 115.118 15.3664V16.2373C114.922 16.2708 114.723 16.2887 114.524 16.2907C113.309 16.2907 112.825 15.8816 112.825 14.8604V11.8688H111.946V10.9881H112.825V9.64537L113.919 9.64525ZM116.611 8.89611H117.694V11.8154H117.781C117.926 11.5103 118.166 11.2555 118.468 11.0857C118.77 10.9158 119.12 10.8393 119.469 10.8664C119.737 10.8524 120.005 10.8952 120.254 10.9917C120.503 11.0883 120.726 11.2361 120.908 11.4247C121.09 11.6134 121.227 11.8381 121.308 12.083C121.388 12.3279 121.412 12.5868 121.376 12.8413V16.2614H120.282V13.0992C120.282 12.253 119.87 11.8245 119.098 11.8245C118.91 11.8098 118.721 11.8345 118.545 11.8969C118.368 11.9594 118.207 12.058 118.075 12.1859C117.942 12.3138 117.84 12.4679 117.776 12.6375C117.712 12.8071 117.687 12.988 117.704 13.1675V16.2614H116.611V8.89611ZM127.748 14.831C127.599 15.3151 127.278 15.7339 126.839 16.0141C126.4 16.2943 125.873 16.418 125.348 16.3636C124.984 16.3728 124.621 16.306 124.286 16.1677C123.951 16.0295 123.651 15.8231 123.408 15.563C123.165 15.3028 122.983 14.9951 122.877 14.6612C122.77 14.3273 122.741 13.9752 122.791 13.6294C122.742 13.2825 122.772 12.9296 122.878 12.5947C122.985 12.2598 123.165 11.9507 123.407 11.6882C123.649 11.4258 123.947 11.2162 124.281 11.0736C124.616 10.931 124.978 10.8588 125.344 10.8618C126.884 10.8618 127.814 11.8688 127.814 13.5322V13.897H123.904V13.9556C123.887 14.15 123.912 14.3457 123.979 14.5301C124.045 14.7145 124.152 14.8835 124.29 15.0264C124.429 15.1693 124.598 15.2829 124.785 15.3598C124.972 15.4367 125.175 15.4753 125.379 15.4732C125.64 15.5032 125.905 15.4582 126.139 15.3438C126.374 15.2295 126.568 15.051 126.696 14.831H127.748ZM123.904 13.1239H126.701C126.714 12.9461 126.689 12.7675 126.626 12.5996C126.564 12.4317 126.465 12.2782 126.337 12.149C126.208 12.0198 126.053 11.9177 125.881 11.8492C125.709 11.7808 125.524 11.7475 125.338 11.7516C125.149 11.7493 124.961 11.7833 124.786 11.8514C124.611 11.9196 124.452 12.0206 124.318 12.1485C124.185 12.2764 124.079 12.4286 124.008 12.5961C123.937 12.7636 123.901 12.9431 123.904 13.1239V13.1239Z" fill="white"/>
</svg>
