<svg width="543" height="557" viewBox="0 0 543 557" fill="none" xmlns="http://www.w3.org/2000/svg">
<g clip-path="url(#clip0_277_25370)">
<path d="M42.9118 0L42.9118 42.8507L0 42.8507L0 0L42.9118 0ZM42.9118 128.542H0L0 171.383H42.9118L42.9118 128.542ZM515 299.925V257.075H472.078V299.925H515ZM515 171.383H472.078L472.078 214.234H515V171.383ZM429.167 42.8507L386.245 42.8507V128.542H429.167V42.8507ZM343.333 0L300.422 0V42.8507L343.343 42.8507L343.333 0ZM429.167 214.234L429.167 171.383H386.245V128.542H343.333V85.6915L214.578 85.6915V42.8507L171.667 42.8507V0L128.745 0V42.8507L42.9118 42.8507L42.9118 85.6915L85.8333 85.6915V128.542L128.745 128.542V171.383L85.8333 171.383V214.234H42.9118L42.9118 257.075H85.8333V299.925H42.9118L42.9118 342.766H0L0 428.458H42.9118L42.9118 385.617H85.8333L85.8333 471.308H42.9118L42.9118 514.149H128.745V557H171.667V514.149H257.5V471.308H300.422L300.422 557H343.343L343.343 514.149L386.255 514.149L386.255 557H429.176L429.176 471.308H472.088V385.617H429.176V428.458H386.255V342.766H429.176V299.925H386.255V257.075H472.088V214.234L429.167 214.234Z" fill="black"/>
<mask id="path-2-inside-1_277_25370" fill="white">
<path fill-rule="evenodd" clip-rule="evenodd" d="M144.555 244.408L162.626 249.99L159.096 261.419L159.092 261.417C156.255 269.418 131.179 268.836 102.787 260.067C74.3938 251.297 53.3578 237.636 55.527 229.43L55.5237 229.429L55.562 229.305C55.5674 229.287 55.5728 229.268 55.5784 229.25C55.584 229.232 55.5896 229.214 55.5954 229.196L59.0536 218L77.124 223.581C86.8711 224.154 99.0656 226.447 111.942 230.424C124.819 234.401 136.182 239.384 144.555 244.408Z"/>
</mask>
<path fill-rule="evenodd" clip-rule="evenodd" d="M144.555 244.408L162.626 249.99L159.096 261.419L159.092 261.417C156.255 269.418 131.179 268.836 102.787 260.067C74.3938 251.297 53.3578 237.636 55.527 229.43L55.5237 229.429L55.562 229.305C55.5674 229.287 55.5728 229.268 55.5784 229.25C55.584 229.232 55.5896 229.214 55.5954 229.196L59.0536 218L77.124 223.581C86.8711 224.154 99.0656 226.447 111.942 230.424C124.819 234.401 136.182 239.384 144.555 244.408Z" fill="black"/>
<path d="M144.555 244.408L144.04 245.266L144.144 245.328L144.259 245.364L144.555 244.408ZM162.626 249.99L163.581 250.285L163.876 249.33L162.921 249.035L162.626 249.99ZM159.096 261.419L158.801 262.374L159.756 262.669L160.051 261.714L159.096 261.419ZM159.092 261.417L159.387 260.462L158.47 260.179L158.149 261.083L159.092 261.417ZM55.527 229.43L56.4938 229.685L56.7391 228.758L55.8221 228.474L55.527 229.43ZM55.5237 229.429L54.5682 229.134L54.2731 230.089L55.2286 230.384L55.5237 229.429ZM55.562 229.305L56.5176 229.6L56.5211 229.588L55.562 229.305ZM55.5954 229.196L56.5472 229.504L56.5509 229.492L55.5954 229.196ZM59.0536 218L59.3487 217.045L58.3932 216.75L58.0981 217.705L59.0536 218ZM77.124 223.581L76.8289 224.537L76.9445 224.573L77.0654 224.58L77.124 223.581ZM144.259 245.364L162.33 250.945L162.921 249.035L144.85 243.453L144.259 245.364ZM161.67 249.695L158.14 261.124L160.051 261.714L163.581 250.285L161.67 249.695ZM159.391 260.463L159.387 260.462L158.797 262.373L158.801 262.374L159.391 260.463ZM158.149 261.083C157.604 262.62 155.906 263.95 152.809 264.855C149.755 265.748 145.582 266.151 140.546 266.031C130.489 265.792 117.215 263.477 103.082 259.111L102.491 261.022C116.751 265.426 130.211 267.786 140.499 268.031C145.636 268.153 150.039 267.749 153.371 266.775C156.661 265.813 159.161 264.215 160.034 261.752L158.149 261.083ZM103.082 259.111C88.948 254.746 76.6805 249.173 68.2402 243.698C64.0146 240.957 60.7956 238.272 58.7764 235.811C56.7296 233.317 56.0771 231.262 56.4938 229.685L54.5602 229.174C53.8923 231.701 55.0558 234.431 57.2304 237.08C59.4327 239.764 62.8405 242.58 67.1519 245.376C75.7855 250.976 88.2323 256.618 102.491 261.022L103.082 259.111ZM55.8221 228.474L55.8188 228.473L55.2286 230.384L55.2319 230.385L55.8221 228.474ZM56.4791 229.724L56.5175 229.6L54.6066 229.01L54.5682 229.134L56.4791 229.724ZM56.5211 229.588C56.5253 229.574 56.5295 229.56 56.5339 229.546L54.6229 228.955C54.6161 228.977 54.6095 228.999 54.603 229.021L56.5211 229.588ZM56.5339 229.546C56.5382 229.532 56.5426 229.517 56.5471 229.503L54.6437 228.889C54.6367 228.911 54.6297 228.933 54.6229 228.955L56.5339 229.546ZM56.5509 229.492L60.0091 218.295L58.0981 217.705L54.64 228.901L56.5509 229.492ZM58.7585 218.956L76.8289 224.537L77.4191 222.626L59.3487 217.045L58.7585 218.956ZM77.0654 224.58C86.716 225.146 98.83 227.421 111.647 231.379L112.237 229.468C99.3012 225.473 87.0263 223.161 77.1826 222.583L77.0654 224.58ZM111.647 231.379C124.464 235.338 135.751 240.291 144.04 245.266L145.069 243.551C136.614 238.477 125.174 233.464 112.237 229.468L111.647 231.379Z" fill="white" mask="url(#path-2-inside-1_277_25370)"/>
<path d="M162.202 249.664C161.645 251.468 159.8 252.897 156.683 253.845C153.586 254.787 149.36 255.213 144.285 255.107C134.144 254.896 120.732 252.567 106.463 248.16C92.1946 243.753 79.8058 238.113 71.3117 232.568C67.0617 229.794 63.8116 227.059 61.7853 224.535C59.746 221.994 59.0281 219.773 59.5854 217.969C60.1427 216.165 61.9878 214.736 65.1047 213.788C68.2017 212.845 72.4278 212.42 77.5021 212.526C87.6435 212.737 101.055 215.065 115.324 219.473C129.593 223.88 141.982 229.52 150.476 235.065C154.726 237.839 157.976 240.574 160.002 243.098C162.041 245.639 162.759 247.859 162.202 249.664Z" fill="black" stroke="white"/>
<mask id="path-5-inside-2_277_25370" fill="white">
<path fill-rule="evenodd" clip-rule="evenodd" d="M242.356 345.842C256.795 348.763 269.099 347.893 269.838 343.9C269.868 343.737 269.879 343.571 269.87 343.402L270.826 338.272L261.317 336.379C256.994 334.44 251.33 332.656 245.032 331.382C238.525 330.066 232.451 329.519 227.674 329.682L218.67 327.889L217.774 332.696C217.666 332.896 217.591 333.105 217.55 333.324C216.811 337.317 227.917 342.922 242.356 345.842Z"/>
</mask>
<path fill-rule="evenodd" clip-rule="evenodd" d="M242.356 345.842C256.795 348.763 269.099 347.893 269.838 343.9C269.868 343.737 269.879 343.571 269.87 343.402L270.826 338.272L261.317 336.379C256.994 334.44 251.33 332.656 245.032 331.382C238.525 330.066 232.451 329.519 227.674 329.682L218.67 327.889L217.774 332.696C217.666 332.896 217.591 333.105 217.55 333.324C216.811 337.317 227.917 342.922 242.356 345.842Z" fill="black"/>
<path d="M269.838 343.9L270.815 344.114L270.815 344.114L269.838 343.9ZM242.356 345.842L242.19 346.829L242.356 345.842ZM269.87 343.402L268.893 343.188L268.871 343.305L268.877 343.426L269.87 343.402ZM270.826 338.272L271.803 338.487L271.99 337.484L270.99 337.285L270.826 338.272ZM261.317 336.379L260.937 337.297L261.042 337.344L261.153 337.366L261.317 336.379ZM245.032 331.382L244.865 332.368L245.032 331.382ZM227.674 329.682L227.511 330.669L227.623 330.691L227.737 330.687L227.674 329.682ZM218.67 327.889L218.834 326.902L217.873 326.711L217.693 327.675L218.67 327.889ZM217.774 332.696L218.649 333.2L218.723 333.064L218.751 332.911L217.774 332.696ZM217.55 333.324L216.573 333.111L217.55 333.324ZM268.861 343.686C268.771 344.174 268.271 344.799 266.872 345.362C265.52 345.907 263.574 346.288 261.136 346.46C256.274 346.804 249.68 346.304 242.523 344.856L242.19 346.829C249.471 348.302 256.249 348.827 261.333 348.467C263.868 348.288 266.039 347.886 267.654 347.235C269.221 346.604 270.536 345.623 270.815 344.114L268.861 343.686ZM268.877 343.426C268.882 343.516 268.876 343.603 268.861 343.686L270.815 344.114C270.86 343.871 270.875 343.625 270.863 343.379L268.877 343.426ZM269.849 338.057L268.893 343.188L270.847 343.617L271.803 338.487L269.849 338.057ZM261.153 337.366L270.663 339.259L270.99 337.285L261.481 335.392L261.153 337.366ZM244.865 332.368C251.106 333.631 256.696 335.395 260.937 337.297L261.697 335.461C257.292 333.486 251.554 331.681 245.199 330.396L244.865 332.368ZM227.737 330.687C232.422 330.528 238.417 331.064 244.865 332.368L245.199 330.396C238.633 329.067 232.481 328.511 227.611 328.676L227.737 330.687ZM218.507 328.876L227.511 330.669L227.838 328.695L218.834 326.902L218.507 328.876ZM218.751 332.911L219.647 328.104L217.693 327.675L216.797 332.481L218.751 332.911ZM218.527 333.538C218.548 333.426 218.587 333.315 218.649 333.2L216.899 332.192C216.745 332.478 216.633 332.785 216.573 333.111L218.527 333.538ZM242.523 344.856C235.365 343.408 229.07 341.301 224.684 339.088C222.483 337.977 220.817 336.867 219.762 335.839C218.671 334.776 218.439 334.016 218.527 333.538L216.573 333.111C216.292 334.629 217.171 336.067 218.406 337.269C219.676 338.506 221.551 339.728 223.84 340.883C228.431 343.2 234.908 345.356 242.19 346.829L242.523 344.856Z" fill="white" mask="url(#path-5-inside-2_277_25370)"/>
<path d="M270.43 337.981C270.289 338.735 269.581 339.458 268.141 340.049C266.723 340.632 264.721 341.032 262.26 341.219C257.343 341.594 250.709 341.115 243.531 339.682C236.353 338.25 230.026 336.141 225.601 333.902C223.385 332.78 221.673 331.639 220.568 330.553C219.447 329.45 219.053 328.508 219.194 327.754C219.336 326.999 220.044 326.277 221.483 325.685C222.901 325.103 224.903 324.703 227.365 324.515C232.282 324.141 238.915 324.619 246.094 326.052C253.272 327.485 259.599 329.594 264.024 331.833C266.24 332.954 267.952 334.095 269.056 335.182C270.178 336.284 270.572 337.227 270.43 337.981Z" fill="black" stroke="white"/>
<mask id="path-8-inside-3_277_25370" fill="white">
<path fill-rule="evenodd" clip-rule="evenodd" d="M216.481 454.595C233.74 444.39 245.451 432.199 242.638 427.364C242.489 427.107 242.301 426.876 242.078 426.671L238.633 420.755L227.67 427.229C221.476 429.158 213.984 432.542 206.296 437.088C198.655 441.606 192.101 446.513 187.414 450.999L176.31 457.555L179.849 463.634C179.918 463.876 180.014 464.104 180.138 464.318C182.951 469.153 199.222 464.799 216.481 454.595Z"/>
</mask>
<path fill-rule="evenodd" clip-rule="evenodd" d="M216.481 454.595C233.74 444.39 245.451 432.199 242.638 427.364C242.489 427.107 242.301 426.876 242.078 426.671L238.633 420.755L227.67 427.229C221.476 429.158 213.984 432.542 206.296 437.088C198.655 441.606 192.101 446.513 187.414 450.999L176.31 457.555L179.849 463.634C179.918 463.876 180.014 464.104 180.138 464.318C182.951 469.153 199.222 464.799 216.481 454.595Z" fill="black"/>
<path d="M242.638 427.364L243.475 426.815L243.475 426.815L242.638 427.364ZM216.481 454.595L216.943 455.483L216.481 454.595ZM242.078 426.671L241.241 427.221L241.315 427.349L241.423 427.448L242.078 426.671ZM238.633 420.755L239.47 420.206L238.991 419.383L238.171 419.867L238.633 420.755ZM227.67 427.229L227.925 428.209L228.033 428.176L228.132 428.118L227.67 427.229ZM206.296 437.088L205.833 436.2L206.296 437.088ZM187.414 450.999L187.876 451.888L187.976 451.828L188.062 451.747L187.414 450.999ZM176.31 457.555L175.848 456.667L174.946 457.199L175.473 458.105L176.31 457.555ZM179.849 463.634L180.786 463.32L180.751 463.195L180.686 463.084L179.849 463.634ZM180.138 464.318L180.975 463.769L180.138 464.318ZM241.801 427.914C242.236 428.662 242.221 429.894 241.299 431.775C240.396 433.616 238.739 435.822 236.408 438.249C231.756 443.092 224.593 448.636 216.018 453.706L216.943 455.483C225.627 450.348 232.95 444.695 237.765 439.683C240.167 437.182 241.989 434.795 243.03 432.673C244.052 430.589 244.446 428.484 243.475 426.815L241.801 427.914ZM241.423 427.448C241.579 427.592 241.704 427.747 241.801 427.914L243.475 426.815C243.273 426.468 243.023 426.161 242.732 425.894L241.423 427.448ZM237.796 421.305L241.241 427.221L242.914 426.121L239.47 420.206L237.796 421.305ZM228.132 428.118L239.095 421.644L238.171 419.867L227.208 426.34L228.132 428.118ZM206.758 437.976C214.394 433.461 221.817 430.111 227.925 428.209L227.414 426.248C221.135 428.204 213.573 431.623 205.833 436.2L206.758 437.976ZM188.062 451.747C192.681 447.326 199.168 442.464 206.758 437.976L205.833 436.2C198.141 440.748 191.521 445.7 186.766 450.251L188.062 451.747ZM176.772 458.444L187.876 451.888L186.952 450.11L175.848 456.667L176.772 458.444ZM180.686 463.084L177.147 457.006L175.473 458.105L179.012 464.184L180.686 463.084ZM180.975 463.769C180.894 463.63 180.831 463.481 180.786 463.32L178.913 463.948C179.004 464.271 179.133 464.579 179.301 464.868L180.975 463.769ZM216.018 453.706C207.444 458.776 199.144 462.374 192.674 464.105C189.432 464.972 186.703 465.356 184.649 465.251C182.545 465.143 181.425 464.542 180.975 463.769L179.301 464.868C180.258 466.512 182.226 467.179 184.503 467.296C186.831 467.415 189.775 466.98 193.11 466.087C199.793 464.299 208.258 460.618 216.943 455.483L216.018 453.706Z" fill="white" mask="url(#path-8-inside-3_277_25370)"/>
<path d="M238.15 420.768C238.725 421.754 238.614 423.218 237.666 425.156C236.728 427.073 235.03 429.327 232.683 431.772C227.993 436.659 220.794 442.229 212.196 447.312C203.597 452.395 195.259 456.009 188.737 457.749C185.473 458.621 182.692 459.015 180.574 458.905C178.432 458.793 177.109 458.177 176.535 457.19C175.96 456.203 176.071 454.739 177.019 452.801C177.957 450.884 179.655 448.631 182.002 446.185C186.692 441.299 193.891 435.728 202.489 430.645C211.088 425.563 219.426 421.949 225.948 420.208C229.212 419.337 231.993 418.943 234.111 419.053C236.253 419.165 237.576 419.781 238.15 420.768Z" fill="black" stroke="white"/>
<path d="M149.68 359.571L184.518 338.548L166.145 293.929L131.314 314.556L149.68 359.571Z" fill="black" stroke="white" stroke-miterlimit="10"/>
<path d="M119.1 363.092L149.679 359.57L131.313 314.556L100.854 317.632L119.1 363.092Z" fill="black" stroke="white" stroke-miterlimit="10"/>
<path d="M135.406 296.569L100.854 317.632L131.313 314.556L166.145 293.928L135.406 296.569Z" fill="black" stroke="white" stroke-miterlimit="10"/>
<path d="M72.8359 96.7679L57.1331 134.272L98.3253 159.477L114.258 122.293L72.8359 96.7679Z" fill="black" stroke="white" stroke-miterlimit="10"/>
<path d="M95.4406 75.9054L72.8356 96.7679L114.258 122.293L137.029 101.863L95.4406 75.9054Z" fill="black" stroke="white" stroke-miterlimit="10"/>
<path d="M121.582 139.229L137.029 101.863L114.258 122.293L98.3252 159.477L121.582 139.229Z" fill="black" stroke="white" stroke-miterlimit="10"/>
<path d="M93.1768 406.906L69 439.608L103.026 473.847L127.352 441.511L93.1768 406.906Z" fill="black" stroke="white" stroke-miterlimit="10"/>
<path d="M120.103 392L93.1768 406.906L127.352 441.511L154.338 427.063L120.103 392Z" fill="black" stroke="white" stroke-miterlimit="10"/>
<path d="M130.44 459.692L154.338 427.063L127.352 441.511L103.026 473.847L130.44 459.692Z" fill="black" stroke="white" stroke-miterlimit="10"/>
<path d="M176.038 174.143L166.19 213.601L210.716 232.242L220.842 193.065L176.038 174.143Z" fill="black" stroke="white" stroke-miterlimit="10"/>
<path d="M195.227 150.08L176.038 174.143L220.842 193.065L240.26 169.403L195.227 150.08Z" fill="black" stroke="white" stroke-miterlimit="10"/>
<path d="M230.642 208.687L240.26 169.402L220.842 193.065L210.716 232.242L230.642 208.687Z" fill="black" stroke="white" stroke-miterlimit="10"/>
</g>
<defs>
<clipPath id="clip0_277_25370">
<rect width="543" height="557" fill="white"/>
</clipPath>
</defs>
</svg>
