<svg width="15" height="9" viewBox="0 0 15 9" fill="none" xmlns="http://www.w3.org/2000/svg">
<path d="M14.2189 0.465364C13.9642 0.212179 13.6197 0.0700684 13.2605 0.0700684C12.9014 0.0700684 12.5569 0.212179 12.3022 0.465364L7.42202 5.27755L2.60983 0.465364C2.35514 0.212179 2.0106 0.0700684 1.65148 0.0700684C1.29235 0.0700684 0.947812 0.212179 0.693116 0.465364C0.565704 0.591736 0.464574 0.742084 0.395561 0.907737C0.326547 1.07339 0.291016 1.25107 0.291016 1.43052C0.291016 1.60997 0.326547 1.78765 0.395561 1.9533C0.464574 2.11896 0.565704 2.26931 0.693116 2.39568L6.45687 8.15943C6.58324 8.28684 6.73359 8.38797 6.89924 8.45698C7.06489 8.526 7.24257 8.56153 7.42202 8.56153C7.60148 8.56153 7.77915 8.526 7.94481 8.45698C8.11046 8.38797 8.26081 8.28684 8.38718 8.15943L14.2189 2.39568C14.3463 2.26931 14.4474 2.11896 14.5165 1.9533C14.5855 1.78765 14.621 1.60997 14.621 1.43052C14.621 1.25107 14.5855 1.07339 14.5165 0.907737C14.4474 0.742084 14.3463 0.591736 14.2189 0.465364Z" fill="white"/>
</svg>
