<svg width="72" height="72" viewBox="0 0 72 72" fill="none" xmlns="http://www.w3.org/2000/svg">
<path d="M72 0H0V72H72V0Z" fill="#121212"/>
<path d="M36.0018 67.9519C53.6473 67.9519 67.9518 53.6474 67.9518 36.0019C67.9518 18.3564 53.6473 4.05188 36.0018 4.05188C18.3563 4.05188 4.05176 18.3564 4.05176 36.0019C4.05176 53.6474 18.3563 67.9519 36.0018 67.9519Z" stroke="white" stroke-width="0.9"/>
<mask id="mask0_69_25420" style="mask-type:alpha" maskUnits="userSpaceOnUse" x="3" y="3" width="66" height="66">
<path d="M36.0037 67.9519C53.6492 67.9519 67.9537 53.6474 67.9537 36.0019C67.9537 18.3564 53.6492 4.05188 36.0037 4.05188C18.3582 4.05188 4.05371 18.3564 4.05371 36.0019C4.05371 53.6474 18.3582 67.9519 36.0037 67.9519Z" fill="#0057FF" stroke="white" stroke-width="0.9"/>
</mask>
<g mask="url(#mask0_69_25420)">
<path opacity="0.21" d="M57.6051 18.9019H43.2051V33.3019H57.6051V18.9019Z" fill="#B5B5B5"/>
<path opacity="0.21" d="M43.4817 4.42468H28.9434V18.963H43.4817V4.42468Z" fill="#575757"/>
<path opacity="0.21" d="M29.0539 18.7644H14.5156V33.3027H29.0539V18.7644Z" fill="#616161"/>
<path opacity="0.03" d="M43.4817 -9.59448H28.9434V4.94382H43.4817V-9.59448Z" fill="#AEAEAE"/>
<path d="M36.6 39.7655L36.9485 39.0957L36.1967 39.1107L30.9881 39.2145C30.857 39.2171 30.7001 39.1377 30.5811 38.9249C30.4633 38.7143 30.4175 38.4213 30.5006 38.1328L35.4967 20.7812C35.5354 20.647 35.5966 20.5382 35.6664 20.4589C35.6819 20.4546 35.7006 20.4496 35.723 20.4439C35.8216 20.419 35.9616 20.389 36.134 20.3553C36.4772 20.2882 36.9258 20.2114 37.3793 20.1384C37.8321 20.0654 38.286 19.9969 38.6385 19.9464C38.8148 19.9212 38.9646 19.9006 39.0756 19.8863C39.1611 19.8753 39.2095 19.87 39.23 19.8677C39.2322 19.8675 39.2342 19.8673 39.2358 19.8671L44.671 20.1243L44.6861 20.1251L44.7012 20.1248C44.8338 20.1221 44.993 20.2036 45.1121 20.4218C45.2299 20.6375 45.2723 20.9356 45.183 21.2247L42.2672 30.6763L42.0848 31.2675L42.7017 31.2552L48.3748 31.1421C48.5359 31.1389 48.7278 31.2565 48.8393 31.558C48.9476 31.8511 48.926 32.2054 48.7505 32.4699L35.0541 51.8729H35.054L35.0481 51.8817C34.5445 52.6317 33.8358 52.6757 32.7626 52.7423C32.7299 52.7443 32.6969 52.7464 32.6636 52.7484C32.1381 52.7814 31.2351 52.8107 30.4567 52.8319C30.2175 52.8384 29.9909 52.8441 29.792 52.8489L36.6 39.7655Z" fill="#161616" stroke="white" stroke-width="0.9"/>
<path d="M30.6572 39.3247L25.9567 39.4184C25.343 39.4306 24.9106 38.5748 25.1206 37.7642L29.612 20.4227C29.6728 20.1881 29.7828 19.985 29.9275 19.8404C30.0722 19.6958 30.2447 19.6164 30.4222 19.6128L38.3039 19.4557C38.9258 19.4433 39.359 20.3213 39.1327 21.1364L36.5107 30.5821L41.6306 30.48C42.3835 30.465 42.7982 31.7057 42.3099 32.5116L29.9666 52.8847C29.3666 53.8752 28.6548 53.4051 29.0502 51.4318L30.6572 39.3247Z" fill="white"/>
</g>
</svg>
