<svg width="70" height="70" viewBox="0 0 70 70" fill="none" xmlns="http://www.w3.org/2000/svg">
<path d="M70 0H0V70H70V0Z" fill="#121212"/>
<path d="M35 66.0643C52.1553 66.0643 66.0625 52.1571 66.0625 35.0018C66.0625 17.8464 52.1553 3.93927 35 3.93927C17.8447 3.93927 3.9375 17.8464 3.9375 35.0018C3.9375 52.1571 17.8447 66.0643 35 66.0643Z" stroke="white" stroke-width="0.875"/>
<mask id="mask0_69_25393" style="mask-type:alpha" maskUnits="userSpaceOnUse" x="3" y="3" width="64" height="64">
<path d="M35 66.0643C52.1553 66.0643 66.0625 52.1571 66.0625 35.0018C66.0625 17.8464 52.1553 3.93927 35 3.93927C17.8447 3.93927 3.9375 17.8464 3.9375 35.0018C3.9375 52.1571 17.8447 66.0643 35 66.0643Z" fill="#161616" stroke="white" stroke-width="0.875"/>
</mask>
<g mask="url(#mask0_69_25393)">
<path opacity="0.21" d="M45.7692 8.6767H31.6348V22.8111H45.7692V8.6767Z" fill="#575757"/>
<path opacity="0.21" d="M59.5 22.7518H45.5V36.7518H59.5V22.7518Z" fill="#B5B5B5"/>
<path opacity="0.21" d="M31.7438 22.618H17.6094V36.7524H31.7438V22.618Z" fill="#616161"/>
<path opacity="0.03" d="M45.7692 -4.95294H31.6348V9.18146H45.7692V-4.95294Z" fill="#AEAEAE"/>
<path d="M19.6621 26.8882C19.6621 25.8669 20.7772 25.2369 21.652 25.764L34.4124 33.4524C34.7986 33.6851 35.0383 34.0997 35.0473 34.5506L35.4063 52.6679C35.4131 53.013 35.0364 53.2297 34.7415 53.0504L20.2926 44.2631C19.9011 44.025 19.6621 43.6 19.6621 43.1417V26.8882Z" stroke="white" stroke-width="0.875"/>
<path d="M33.95 33.0093L20.3516 25.253L34.1367 18.4219C34.8732 18.057 35.738 18.058 36.4736 18.4248L49.5636 24.9517L36.6328 32.9608C35.815 33.4673 34.7856 33.4859 33.95 33.0093Z" fill="white"/>
<path d="M34.9707 52.3623C34.9707 52.7027 35.3424 52.9127 35.634 52.737L49.7015 44.2611C50.0956 44.0236 50.3366 43.5971 50.3366 43.1369V26.8881C50.3366 25.8669 49.2215 25.2369 48.3468 25.7639L35.6058 33.4406C35.2117 33.678 34.9707 34.1046 34.9707 34.5648V52.3623Z" fill="white" stroke="white" stroke-width="0.875"/>
<path d="M32.543 33.491C32.9237 34.303 33.9186 34.6139 34.6939 34.1632L49.5325 25.5361C50.3086 25.0849 50.04 23.9024 49.1451 23.8307" stroke="url(#paint0_linear_69_25393)" stroke-width="1.05"/>
</g>
<defs>
<linearGradient id="paint0_linear_69_25393" x1="43.0463" y1="30.6031" x2="51.3988" y2="23.6709" gradientUnits="userSpaceOnUse">
<stop stop-color="#161616"/>
<stop offset="1" stop-color="#373737"/>
</linearGradient>
</defs>
</svg>
