<svg width="145" height="45" viewBox="0 0 145 45" fill="none" xmlns="http://www.w3.org/2000/svg">
<path d="M139.63 45H5.37038C2.4167 45 0 42.4688 0 39.375V5.62503C0 2.53125 2.41666 0 5.37038 0H139.63C142.583 0 145 2.53125 145 5.62503V39.375C145 42.4688 142.583 45 139.63 45" fill="#2E2E2E"/>
<path d="M50.6167 11.5237C50.6167 12.4662 50.3502 13.2168 49.8165 13.7767C49.2102 14.4425 48.4201 14.7756 47.4488 14.7756C46.5187 14.7756 45.7278 14.4381 45.0775 13.7622C44.426 13.0868 44.1008 12.2492 44.1008 11.2499C44.1008 10.2501 44.426 9.413 45.0775 8.73701C45.7278 8.06163 46.5187 7.72363 47.4488 7.72363C47.9104 7.72363 48.3523 7.81818 48.7718 8.00672C49.1913 8.19571 49.5278 8.44659 49.7796 8.76077L49.2131 9.35445C48.7865 8.82054 48.1991 8.55378 47.4488 8.55378C46.7705 8.55378 46.1839 8.80345 45.6889 9.30308C45.1937 9.80322 44.9462 10.4518 44.9462 11.2499C44.9462 12.0479 45.1937 12.6965 45.6889 13.1967C46.1839 13.6963 46.7704 13.9459 47.4488 13.9459C48.1685 13.9459 48.7684 13.6949 49.2488 13.1923C49.5606 12.8648 49.7409 12.4096 49.7892 11.8251H47.4488V11.0143H50.5717C50.6019 11.1906 50.6166 11.3598 50.6166 11.5237" fill="white"/>
<path d="M50.6168 11.5241H50.5094C50.5085 12.4452 50.2517 13.1606 49.7406 13.6976L49.7395 13.6985L49.739 13.6994C49.1521 14.3422 48.3976 14.6622 47.449 14.6636C46.5437 14.6622 45.7859 14.3388 45.1531 13.6831C44.5218 13.0261 44.2096 12.2241 44.2084 11.2503C44.2096 10.276 44.5218 9.47446 45.1531 8.81794C45.7859 8.16182 46.5437 7.83793 47.449 7.83657C47.8967 7.83657 48.323 7.92808 48.7295 8.1104C49.1364 8.29414 49.4579 8.5349 49.6974 8.83382L49.7797 8.76121L49.7038 8.68168L49.1373 9.27576L49.2132 9.35489L49.296 9.28289C48.8494 8.72253 48.2227 8.44005 47.449 8.44172C46.7455 8.44081 46.1266 8.70413 45.6147 9.22273C45.0978 9.74299 44.8381 10.4281 44.839 11.2503C44.8381 12.0726 45.0978 12.7576 45.6147 13.2779C46.1266 13.7965 46.7455 14.0598 47.449 14.0589C48.1924 14.0602 48.826 13.796 49.3249 13.2722C49.658 12.9224 49.8468 12.4377 49.8964 11.8352L49.9064 11.713H47.5564V11.1272H50.5718V11.0147L50.4661 11.0345C50.4955 11.2051 50.5093 11.3672 50.5093 11.5241H50.7242C50.7242 11.3531 50.709 11.1774 50.6775 10.9946L50.6616 10.9022H47.3416V11.938H49.7893V11.8255L49.6824 11.8159C49.635 12.3819 49.4629 12.8082 49.173 13.1132C48.7115 13.5948 48.1451 13.8325 47.449 13.8339C46.7958 13.833 46.2416 13.5974 45.7637 13.1162C45.2904 12.6368 45.055 12.0246 45.0538 11.2503C45.055 10.476 45.2904 9.86383 45.7637 9.38437C46.2416 8.90319 46.7957 8.66763 47.449 8.66671C48.1753 8.66854 48.7237 8.91987 49.1311 9.42744L49.2067 9.52149L49.8557 8.84079L49.9253 8.76789L49.8619 8.68911C49.598 8.35961 49.2464 8.09806 48.8143 7.90391C48.3813 7.70915 47.9244 7.61157 47.449 7.61157C46.4941 7.61071 45.6701 7.96226 45.0017 8.65797C44.3309 9.35231 43.9927 10.2251 43.9937 11.2503C43.9927 12.275 44.3309 13.1483 45.0022 13.8431C45.6701 14.5383 46.4941 14.8895 47.449 14.8886C48.4434 14.8895 49.2683 14.5435 49.8943 13.8549L49.8166 13.7771L49.8925 13.8567C50.4489 13.2744 50.7249 12.4878 50.7242 11.5241H50.6168H50.6168ZM55.5675 8.70453H52.6327V10.8447H55.2794V11.6558H52.6327V13.796H55.5675V14.6253H51.8053V7.8753H55.5675V8.70453" fill="white"/>
<path d="M55.5676 8.70431V8.59181H52.5254V10.957H55.172V11.5428L52.5253 11.5431V13.9083H55.4601V14.5126H51.9128V7.98757H55.4601V8.70431H55.5676V8.59181V8.70431H55.6749V7.76257H51.698V14.7376H55.6749V13.6833H52.7401V11.7681H55.3868V10.732H52.7401V8.8168H55.6749V8.70431H55.5676V8.70431ZM59.0596 14.6251H58.2309V8.70426H56.431V7.87502H60.8595V8.70426H59.0596V14.625" fill="white"/>
<path d="M59.0594 14.6251V14.5126H58.3382V8.59181H56.5383V7.98762H60.752V8.59181H58.9521V14.6251H59.0594V14.5126V14.6251H59.1669V8.8168H60.9668V7.76257H56.3235V8.81675H58.1234V14.7375H59.1669V14.625H59.0594V14.6251ZM64.0636 14.6251V7.87502H64.8914V14.625H64.0636" fill="white"/>
<path d="M64.0637 14.6251H64.1711V7.98757H64.784V14.5126H64.0637V14.6251H64.1711H64.0637V14.7376H64.9989V7.76257H63.9563V14.7376H64.0637V14.6251V14.6251ZM68.5647 14.6251H67.7361V8.70426H65.9362V7.87502H70.3646V8.70426H68.5647V14.625" fill="white"/>
<path d="M68.5647 14.6249V14.5124H67.8435V8.5916H66.0437V7.98741H70.2572V8.5916H68.4573V14.6248H68.5647V14.5124V14.6248H68.6721V8.81659H70.4721V7.76236H65.8289V8.81654H67.6287V14.7373H68.6721V14.6248H68.5647V14.6249ZM74.6341 13.1875C75.1111 13.6932 75.6948 13.9459 76.385 13.9459C77.0752 13.9459 77.6591 13.6932 78.1354 13.1875C78.6128 12.6817 78.852 12.0351 78.852 11.2499C78.852 10.4647 78.6128 9.81809 78.1354 9.31228C77.6591 8.80648 77.0752 8.55378 76.385 8.55378C75.6948 8.55378 75.1111 8.80648 74.6341 9.31228C74.1579 9.81809 73.9188 10.4646 73.9188 11.2499C73.9188 12.0351 74.1579 12.6817 74.6341 13.1875ZM78.7479 13.7525C78.1143 14.4349 77.3264 14.7756 76.385 14.7756C75.4426 14.7756 74.655 14.4349 74.0228 13.7525C73.3888 13.0709 73.0734 12.2365 73.0734 11.2499C73.0734 10.2632 73.3888 9.42867 74.0228 8.74717C74.6551 8.06461 75.4426 7.72363 76.385 7.72363C77.3214 7.72363 78.1072 8.06643 78.7437 8.75157C79.3793 9.43666 79.6974 10.2694 79.6974 11.2499C79.6974 12.2365 79.3801 13.0709 78.7479 13.7525Z" fill="white"/>
<path d="M74.634 13.1879L74.5576 13.267C75.0523 13.793 75.6695 14.0602 76.3848 14.0589C77.0997 14.0602 77.7177 13.793 78.2116 13.267C78.7096 12.7405 78.96 12.0593 78.9592 11.2503C78.96 10.4413 78.7096 9.76013 78.2116 9.2336C77.7177 8.70757 77.0997 8.44041 76.3848 8.44172C75.6695 8.44041 75.0523 8.70757 74.5576 9.2336C74.0608 9.76013 73.8099 10.4413 73.8112 11.2503C73.8099 12.0593 74.0608 12.7405 74.5576 13.267L74.634 13.1879L74.7104 13.1088C74.2547 12.6232 74.0269 12.0123 74.026 11.2503C74.0269 10.4884 74.2547 9.87748 74.7103 9.3918C75.1701 8.90627 75.7193 8.66808 76.3848 8.66677C77.0498 8.66808 77.6002 8.90627 78.0589 9.3918C78.5153 9.87748 78.7432 10.4884 78.744 11.2503C78.7432 12.0122 78.5153 12.6232 78.0589 13.1088C77.6002 13.5944 77.0498 13.8325 76.3848 13.8338C75.7193 13.8325 75.1701 13.5944 74.7103 13.1088L74.634 13.1879ZM78.7477 13.753L78.671 13.6748C78.0551 14.3357 77.302 14.6622 76.3848 14.6636C75.4672 14.6622 74.7141 14.3357 74.0994 13.6748L74.0965 13.6713L74.0994 13.6748C73.4848 13.0116 73.1815 12.2118 73.1806 11.2503C73.1815 10.2887 73.4848 9.48898 74.0994 8.82583C74.7141 8.16486 75.4672 7.83793 76.3848 7.83662C77.2961 7.83793 78.0475 8.16622 78.6668 8.83063C79.2835 9.49686 79.5886 10.2954 79.5899 11.2503C79.5886 12.2118 79.2844 13.0116 78.671 13.6748L78.7477 13.753L78.825 13.8311C79.4761 13.1307 79.8054 12.2619 79.8047 11.2503C79.8054 10.2444 79.4748 9.37739 78.8207 8.67385C78.1662 7.96752 77.3464 7.61036 76.3848 7.61158C75.4182 7.61036 74.5958 7.96585 73.9455 8.66945V8.66894C73.2931 9.36986 72.965 10.2387 72.9658 11.2503C72.965 12.2619 73.2931 13.1307 73.9455 13.8316L73.9484 13.8348L73.9455 13.8311C74.5958 14.5347 75.4182 14.8895 76.3848 14.8886C77.351 14.8895 78.1734 14.5347 78.825 13.8311L78.7477 13.753V13.753ZM80.8594 14.6253V7.87525H81.8672L84.9992 13.1263H85.0349L84.9992 11.8255V7.87525H85.8279V14.6252H84.9635L81.6868 9.11974H81.6511L81.6868 10.421V14.6252H80.8594" fill="white"/>
<path d="M80.8595 14.6251H80.9669V7.98757H81.8077L84.9397 13.2386H85.1453L85.1067 11.8236V7.98762H85.7205V14.5126H85.0232L81.7465 9.00706H81.5409L81.5794 10.4226V14.5126H80.8595V14.6251H80.9669H80.8595V14.7376H81.7943V10.4191L81.7586 9.11653L81.6512 9.11956V9.23205H81.6869V9.11956L81.5958 9.17937L84.9041 14.7376H85.9354V7.76257H84.8919V11.8266L84.9276 13.1291L85.035 13.1261V13.0136H84.9993V13.1261L85.0904 13.0664L81.9268 7.76257H80.7521V14.7376H80.8596V14.6251L80.8595 14.6251ZM114.543 33.7501H116.547V19.6862H114.543L114.543 33.7501ZM132.595 24.7524L130.298 30.8497H130.229L127.844 24.7523H125.686L129.261 33.2745L127.223 38.015H129.314L134.824 24.7523L132.595 24.7524ZM121.229 32.1527C120.572 32.1527 119.657 31.809 119.657 30.9583C119.657 29.8728 120.797 29.4566 121.781 29.4566C122.663 29.4566 123.077 29.6556 123.613 29.9274C123.457 31.2298 122.386 32.1527 121.229 32.1527V32.1527ZM121.471 24.4447C120.02 24.4447 118.517 25.1143 117.895 26.598L119.674 27.3758C120.054 26.598 120.762 26.3444 121.505 26.3444C122.542 26.3444 123.595 26.9961 123.613 28.1541V28.2987C123.25 28.0816 122.473 27.7559 121.522 27.7559C119.605 27.7559 117.653 28.8594 117.653 30.9222C117.653 32.804 119.225 34.0164 120.987 34.0164C122.334 34.0164 123.077 33.3831 123.544 32.6414H123.613V33.7268H125.547V28.3347C125.547 25.8382 123.768 24.4447 121.471 24.4447V24.4447ZM109.085 26.4643H106.234V21.6436H109.085C110.583 21.6436 111.434 22.943 111.434 24.0539C111.434 25.1438 110.583 26.4643 109.085 26.4643ZM109.033 19.6862H104.231V33.7501H106.234V28.4217H109.033C111.254 28.4217 113.438 26.7373 113.438 24.0539C113.438 21.3707 111.254 19.6862 109.033 19.6862V19.6862ZM82.8461 32.1553C81.4615 32.1553 80.3023 30.9411 80.3023 29.2734C80.3023 27.5881 81.4615 26.3554 82.8461 26.3554C84.2131 26.3554 85.2859 27.5881 85.2859 29.2734C85.2859 30.9411 84.2131 32.1553 82.8462 32.1553H82.8461ZM85.1474 25.5398H85.0782C84.6284 24.9781 83.7628 24.4706 82.6729 24.4706C80.3887 24.4706 78.2952 26.5729 78.2952 29.2734C78.2952 31.9558 80.3887 34.0401 82.6729 34.0401C83.7628 34.0401 84.6284 33.5325 85.0782 32.9529H85.1474V33.6415C85.1474 35.4723 84.2131 36.451 82.7077 36.451C81.4791 36.451 80.7177 35.5263 80.4059 34.7472L78.6586 35.5083C79.1603 36.777 80.4928 38.3358 82.7077 38.3358C85.0609 38.3358 87.0509 36.8856 87.0509 33.3515V24.7607H85.1474V25.5398ZM88.4351 33.7501H90.4423V19.6857H88.4351V33.7501ZM93.4013 29.1104C93.3494 27.2615 94.7683 26.3193 95.7891 26.3193C96.5856 26.3193 97.2602 26.7359 97.4847 27.3346L93.4013 29.1104ZM99.6307 27.5155C99.2504 26.4459 98.0904 24.4706 95.7199 24.4706C93.3666 24.4706 91.4114 26.4099 91.4114 29.2554C91.4114 31.9378 93.3494 34.0401 95.9448 34.0401C98.0389 34.0401 99.2504 32.6989 99.7521 31.9197L98.1946 30.832C97.6758 31.6297 96.9659 32.1553 95.9448 32.1553C94.924 32.1553 94.1974 31.6658 93.7299 30.7055L99.838 28.0592L99.6307 27.5155ZM50.9663 25.9388V27.9686H55.6036C55.4652 29.1104 55.1018 29.944 54.548 30.524C53.8734 31.2311 52.8178 32.0103 50.9662 32.0103C48.1111 32.0103 45.8791 29.5998 45.8791 26.6093C45.8791 23.6189 48.1111 21.2081 50.9663 21.2081C52.5064 21.2081 53.6308 21.8426 54.4615 22.6582L55.8285 21.2266C54.6693 20.0663 53.1291 19.1783 50.9663 19.1783C47.0555 19.1783 43.7678 22.5133 43.7678 26.6093C43.7678 30.7055 47.0555 34.0401 50.9663 34.0401C53.0775 34.0401 54.6693 33.3155 55.915 31.9558C57.1955 30.6146 57.5937 28.7298 57.5937 27.2075C57.5937 26.7359 57.5592 26.3013 57.4896 25.9388H50.9663ZM62.8658 32.1553C61.4813 32.1553 60.2872 30.959 60.2872 29.2554C60.2872 27.5335 61.4813 26.3554 62.8658 26.3554C64.2499 26.3554 65.4439 27.5335 65.4439 29.2554C65.4439 30.9591 64.2499 32.1553 62.8658 32.1553ZM62.8658 24.4706C60.3392 24.4706 58.28 26.4823 58.28 29.2554C58.28 32.0103 60.3392 34.0401 62.8658 34.0401C65.392 34.0401 67.4512 32.0103 67.4512 29.2554C67.4512 26.4823 65.392 24.4706 62.8658 24.4706ZM72.8689 32.1553C71.4849 32.1553 70.2907 30.959 70.2907 29.2554C70.2907 27.5335 71.4849 26.3554 72.8689 26.3554C74.2531 26.3554 75.4471 27.5335 75.4471 29.2554C75.4471 30.9591 74.2531 32.1553 72.8689 32.1553H72.8689ZM72.8689 24.4706C70.3424 24.4706 68.2836 26.4823 68.2836 29.2554C68.2836 32.0103 70.3424 34.0401 72.8689 34.0401C75.3952 34.0401 77.4544 32.0103 77.4544 29.2554C77.4544 26.4823 75.3952 24.4706 72.8689 24.4706H72.8689Z" fill="white"/>
<path d="M10.9728 8.56246C10.6124 8.90309 10.3972 9.47123 10.3972 10.2254V10.0549V34.9411V34.7772C10.3972 35.4737 10.5818 36.0116 10.8943 36.3579L10.9741 36.4379V36.4383C11.227 36.6774 11.5514 36.8043 11.9232 36.8039C12.2864 36.8039 12.6951 36.6826 13.1265 36.4265L28.7169 27.1483L34.0721 23.9609C34.7522 23.5562 35.134 23.0342 35.1978 22.5024V22.5002C35.134 21.9672 34.7522 21.4455 34.0721 21.0408L28.7164 17.8538L13.1265 8.57561C12.6943 8.31901 12.2853 8.19727 11.921 8.19727C11.5497 8.19727 11.2258 8.32382 10.9729 8.56246H10.9728Z" fill="#00C1FF"/>
<path d="M10.9741 36.4379L10.8943 36.3579C10.5818 36.0115 10.3972 35.4736 10.3972 34.7772V34.9411V10.061V10.2253C10.3972 9.47117 10.6124 8.90303 10.9728 8.5624L24.2804 22.5006L10.9741 36.4379Z" fill="url(#paint0_linear_203_2)"/>
<path d="M28.717 27.1484L24.2805 22.5008L28.7166 17.854L34.0722 21.0409C34.7523 21.4457 35.1341 21.9673 35.1979 22.5004V22.5025C35.1341 23.0343 34.7523 23.5564 34.0722 23.9611L28.717 27.1484" fill="url(#paint1_linear_203_2)"/>
<path d="M11.9231 36.8042C11.5514 36.8046 11.227 36.6775 10.9741 36.4385V36.4381L24.2804 22.5009L28.7169 27.1485L13.1264 36.4267C12.6951 36.6829 12.2864 36.8042 11.9231 36.8042Z" fill="url(#paint2_linear_203_2)"/>
<path d="M24.2805 22.5007L10.9729 8.56255C11.2259 8.3239 11.5498 8.19735 11.9211 8.19735C12.2853 8.19735 12.6943 8.31905 13.1265 8.57569L28.7166 17.8539L24.2805 22.5007" fill="url(#paint3_linear_203_2)"/>
<path d="M11.9235 36.969C11.5518 36.969 11.227 36.842 10.974 36.6029L10.9736 36.6033C10.9725 36.6022 10.9714 36.6012 10.9702 36.6003L10.9011 36.5295C10.8989 36.5273 10.8968 36.5247 10.8943 36.5221L10.9741 36.4386C11.227 36.6776 11.5514 36.8046 11.9232 36.8042C12.2864 36.8042 12.6951 36.6829 13.1264 36.4267L28.7168 27.1485L28.8167 27.2532L28.7155 27.3134L13.1263 36.5911C12.7333 36.8244 12.3594 36.9461 12.0217 36.9664C11.989 36.9681 11.9562 36.9689 11.9235 36.9689" fill="url(#paint4_linear_203_2)"/>
<path d="M10.8943 36.5223C10.5818 36.176 10.3972 35.6385 10.3972 34.9416V34.7777C10.3972 35.4742 10.5818 36.012 10.8943 36.3584L10.9741 36.4384L10.8943 36.5223" fill="url(#paint5_linear_203_2)"/>
<path d="M28.8167 27.253L28.7168 27.1483L34.072 23.961C34.7521 23.5564 35.1339 23.0343 35.1978 22.5025C35.1978 22.6976 35.1562 22.8927 35.0736 23.0826C34.907 23.4654 34.5731 23.827 34.072 24.1254L28.8167 27.2531" fill="url(#paint6_linear_203_2)"/>
<path d="M35.198 22.5005C35.1341 21.9674 34.7523 21.4458 34.0722 21.041L28.7166 17.8541L28.8164 17.7494H28.8169L34.0722 20.8771C34.822 21.3236 35.1975 21.912 35.198 22.5005" fill="url(#paint7_linear_203_2)"/>
<path d="M10.3972 10.2261V10.0542C10.3972 9.99218 10.3988 9.93156 10.4019 9.87271V9.87003C10.4019 9.86922 10.4019 9.86836 10.4021 9.86745V9.86083C10.4345 9.26093 10.6124 8.793 10.8943 8.48053L10.9728 8.5631C10.6124 8.90377 10.3972 9.47192 10.3972 10.2261Z" fill="url(#paint8_linear_203_2)"/>
<path d="M28.7164 17.854L13.1264 8.5757C12.6942 8.31911 12.2852 8.19741 11.921 8.19741C11.5497 8.19741 11.2257 8.32396 10.9728 8.56261L10.8943 8.47999C10.9188 8.4528 10.9443 8.42657 10.9707 8.40137C10.9715 8.40046 10.9728 8.39955 10.9736 8.39869C11.2246 8.16187 11.5451 8.03531 11.9131 8.03304H11.921C12.2852 8.03304 12.6942 8.15479 13.1264 8.41148L28.8167 17.749L28.8163 17.7493L28.7164 17.854" fill="url(#paint9_linear_203_2)"/>
<defs>
<linearGradient id="paint0_linear_203_2" x1="18.9016" y1="9.79805" x2="6.92017" y2="21.274" gradientUnits="userSpaceOnUse">
<stop stop-color="#00A0FF"/>
<stop offset="0.00657" stop-color="#00A1FF"/>
<stop offset="0.2601" stop-color="#00BEFF"/>
<stop offset="0.5122" stop-color="#00D2FF"/>
<stop offset="0.7604" stop-color="#00DFFF"/>
<stop offset="1" stop-color="#00E3FF"/>
</linearGradient>
<linearGradient id="paint1_linear_203_2" x1="36.0266" y1="22.4205" x2="10.0372" y2="22.4205" gradientUnits="userSpaceOnUse">
<stop stop-color="#FFE000"/>
<stop offset="0.4087" stop-color="#FFBD00"/>
<stop offset="0.7754" stop-color="#FFA500"/>
<stop offset="1" stop-color="#FF9C00"/>
</linearGradient>
<linearGradient id="paint2_linear_203_2" x1="26.3615" y1="26.9196" x2="6.06477" y2="46.2182" gradientUnits="userSpaceOnUse">
<stop stop-color="#FF3A44"/>
<stop offset="1" stop-color="#C31162"/>
</linearGradient>
<linearGradient id="paint3_linear_203_2" x1="7.54315" y1="6.49615" x2="16.5896" y2="15.1109" gradientUnits="userSpaceOnUse">
<stop stop-color="#32A071"/>
<stop offset="0.0685" stop-color="#2DA771"/>
<stop offset="0.4762" stop-color="#15CF74"/>
<stop offset="0.8009" stop-color="#06E775"/>
<stop offset="1" stop-color="#00F076"/>
</linearGradient>
<linearGradient id="paint4_linear_203_2" x1="26.3518" y1="30.1435" x2="10.0918" y2="45.7177" gradientUnits="userSpaceOnUse">
<stop stop-color="#CC2E36"/>
<stop offset="1" stop-color="#9C0E4E"/>
</linearGradient>
<linearGradient id="paint5_linear_203_2" x1="12.17" y1="9.79856" x2="1.61454" y2="19.9089" gradientUnits="userSpaceOnUse">
<stop stop-color="#008DE0"/>
<stop offset="0.00657" stop-color="#008DE0"/>
<stop offset="0.2601" stop-color="#00A7E0"/>
<stop offset="0.5122" stop-color="#00B8E0"/>
<stop offset="0.7604" stop-color="#00C4E0"/>
<stop offset="1" stop-color="#00C7E0"/>
</linearGradient>
<linearGradient id="paint6_linear_203_2" x1="36.0264" y1="22.5014" x2="10.037" y2="22.5014" gradientUnits="userSpaceOnUse">
<stop stop-color="#E0C500"/>
<stop offset="0.4087" stop-color="#E0A600"/>
<stop offset="0.7754" stop-color="#E09100"/>
<stop offset="1" stop-color="#E08900"/>
</linearGradient>
<linearGradient id="paint7_linear_203_2" x1="36.0266" y1="22.5016" x2="10.0373" y2="22.5016" gradientUnits="userSpaceOnUse">
<stop stop-color="#FFE840"/>
<stop offset="0.4087" stop-color="#FFCE40"/>
<stop offset="0.7754" stop-color="#FFBC40"/>
<stop offset="1" stop-color="#FFB540"/>
</linearGradient>
<linearGradient id="paint8_linear_203_2" x1="12.159" y1="9.8179" x2="2.01234" y2="19.1156" gradientUnits="userSpaceOnUse">
<stop stop-color="#40B8FF"/>
<stop offset="0.00657" stop-color="#40B9FF"/>
<stop offset="0.2601" stop-color="#40CEFF"/>
<stop offset="0.5122" stop-color="#40DDFF"/>
<stop offset="0.7604" stop-color="#40E7FF"/>
<stop offset="1" stop-color="#40EAFF"/>
</linearGradient>
<linearGradient id="paint9_linear_203_2" x1="7.52362" y1="9.44386" x2="14.7844" y2="16.3985" gradientUnits="userSpaceOnUse">
<stop stop-color="#65B895"/>
<stop offset="0.0685" stop-color="#62BD95"/>
<stop offset="0.4762" stop-color="#50DB97"/>
<stop offset="0.8009" stop-color="#44ED98"/>
<stop offset="1" stop-color="#40F498"/>
</linearGradient>
</defs>
</svg>
