<svg width="872" height="693" viewBox="0 0 872 693" fill="none" xmlns="http://www.w3.org/2000/svg">
<g clip-path="url(#clip0_182_25257)">
<line x1="105.5" y1="3" x2="105.5" y2="693" stroke="white"/>
<mask id="mask0_182_25257" style="mask-type:alpha" maskUnits="userSpaceOnUse" x="106" y="3" width="824" height="689">
<rect x="106.5" y="3.5" width="823" height="688" fill="black" stroke="white"/>
</mask>
<g mask="url(#mask0_182_25257)">
<g clip-path="url(#clip1_182_25257)">
<path d="M-634.769 1247.03C-1080.99 954.408 -1227.22 261.942 -934.736 -185.477C-782.188 -418.833 -528.119 -575.574 -256.819 -632.507C5.47915 -687.61 274.078 -631.203 497.812 -485.397C724.474 -337.7 912.201 -99.5343 968.617 168.577C1024.65 435.101 944.664 722.524 797.836 947.129C652.336 1169.71 430.131 1339.11 167.595 1393.92C-104.019 1450.53 -402.386 1399.44 -634.769 1247.03Z" stroke="white" stroke-miterlimit="10"/>
<path d="M765.095 923.417C903.766 711.288 992.701 434.538 938.506 177.359C883.92 -82.3377 693.87 -308.401 477.639 -449.278C268.103 -585.893 12.7989 -642.457 -235.741 -590.262C-497.793 -535.293 -750.106 -383.763 -895.145 -161.79C-1166.73 253.832 -1025.17 937.067 -607.678 1211.03C-385.251 1356.99 -92.2966 1406.61 170.885 1351.67C420.727 1299.43 629.348 1131.35 765.095 923.417Z" stroke="white" stroke-miterlimit="10"/>
<path d="M-574.217 1174.79C-777.062 1041.51 -896.335 813.928 -946.241 575.008C-996.78 333.004 -982.423 65.767 -849.19 -138.354C-711.987 -348.547 -464.15 -495.445 -211.974 -548.182C23.9723 -597.589 266.724 -542.037 463.949 -413.312C669.935 -278.882 858.6 -64.2688 911.262 186.047C963.316 433.522 870.039 698.882 738.851 899.77C611.375 1095.12 414.734 1259.37 176.905 1309.2C-76.6949 1362.39 -362.283 1314.04 -574.217 1174.79Z" stroke="white" stroke-miterlimit="10"/>
<path d="M718.429 876.146C842.753 685.412 936.307 432.09 886.62 194.806C836.334 -45.3352 651.958 -249.27 455.958 -377.307C56.5483 -638.248 -547.48 -498.26 -797.496 -114.835C-922.826 77.369 -934.577 335.946 -886.389 566.072C-838.886 792.922 -726.408 1012.69 -535.013 1138.6C-333.335 1271.28 -57.5649 1317.89 185.759 1266.93C412.079 1219.51 598.312 1060.38 718.429 876.146Z" stroke="white" stroke-miterlimit="10"/>
<path d="M-490.641 1102.4C-842.909 872.839 -962.641 249.49 -740.597 -91.3529C-507.004 -450.035 72.8362 -592.483 453.146 -341.335C639.562 -218.227 816.613 -26.7968 864.788 203.524C912.087 429.472 820.421 672.327 703.087 852.403C590.066 1025.95 411.972 1179.59 197.297 1224.6C-35.9174 1273.46 -298.158 1227.82 -490.641 1102.4Z" stroke="white" stroke-miterlimit="10"/>
<path d="M692.429 828.693C803.766 657.686 890.611 427.018 845.639 212.254C799.811 -6.66772 631.977 -188.383 454.956 -305.371C93.7596 -544.047 -458.02 -407.556 -679.108 -67.899C-889.918 255.896 -776.703 847.85 -441.635 1066.16C-259.055 1185.13 -10.0356 1228.68 211.539 1182.25C415.523 1139.51 585.221 993.349 692.429 828.693Z" stroke="white" stroke-miterlimit="10"/>
<path d="M-388.611 1029.91C-707.847 821.855 -814.709 264.351 -613.599 -44.4688C-403.354 -367.297 118.3 -495.606 460.787 -269.432C628.543 -158.659 785.772 13.9091 829.123 220.939C871.685 424.262 791.449 642.64 685.759 804.939C459.524 1152.37 -48.787 1251.4 -388.611 1029.91Z" stroke="white" stroke-miterlimit="10"/>
<path d="M682.544 781.162C782.846 627.243 855.221 421.307 815.055 229.687C774.217 34.6638 628.738 -128.705 470.03 -233.45C145.638 -447.637 -343.983 -328.212 -544.619 -21.0518C-738.116 275.186 -635.326 795.341 -332.09 993.57C-11.2494 1203.6 468.463 1109.72 682.544 781.162Z" stroke="white" stroke-miterlimit="10"/>
<path d="M-272.803 957.361C-562.177 767.764 -657.983 286.319 -472.781 2.35366C-280.977 -291.71 174.918 -398.969 482.227 -197.624C632.325 -99.2997 765.22 55.7309 803.424 238.307C841.205 418.796 777.787 610.856 682.204 757.383C479.411 1068.29 32.2016 1157.18 -272.803 957.361Z" stroke="white" stroke-miterlimit="10"/>
<path d="M684.169 733.574C774.579 595.272 829.098 415.611 793.783 246.962C758.16 76.7078 637.784 -69.3685 496.691 -161.739C207.182 -351.267 -216.049 -253.926 -398.621 25.7391C-575.949 297.383 -486.887 740.545 -211.143 921.051C76.9713 1109.67 493.322 1025.93 684.169 733.574Z" stroke="white" stroke-miterlimit="10"/>
<path d="M-147.771 884.753C-409.817 713.337 -492.178 308.452 -322.755 49.1089C-149.383 -216.274 241.18 -303.586 512.88 -125.859C644.84 -39.5948 753.159 97.718 785.95 255.621C818.508 412.67 773.022 579.411 687.898 709.696C508.957 983.634 123.516 1062.21 -147.771 884.753Z" stroke="white" stroke-miterlimit="10"/>
<path d="M338.366 927.906C641.383 864.455 835.586 567.358 772.13 264.321C708.674 -38.717 411.589 -232.94 108.572 -169.489C-194.445 -106.037 -388.648 191.061 -325.192 494.099C-261.736 797.136 35.3486 991.358 338.366 927.906Z" stroke="white" stroke-miterlimit="10"/>
<path d="M-18.1485 812.115C-249.262 660.083 -319.768 327.821 -168.132 95.8599C-14.9517 -138.463 313.973 -206.218 548.124 -54.1233C786.929 100.992 853.557 424.337 698.107 662.132C544.212 897.549 217.573 967.206 -18.1485 812.115Z" stroke="white" stroke-miterlimit="10"/>
<path d="M703.492 638.318C842.474 425.713 782.119 122.057 566.02 -18.2592C352.304 -156.995 49.1603 -94.584 -90.5677 119.23C-229.82 332.247 -165.613 635.862 46.9317 775.801C261.701 917.217 565.126 850.013 703.492 638.318Z" stroke="white" stroke-miterlimit="10"/>
<path d="M111.465 739.492C-82.0168 612.897 -139.53 335.561 -13.5187 142.626C112.292 -49.8295 390.718 -108.352 583.349 17.641C775.614 143.327 832.524 424.458 708.347 614.519C584.169 804.58 304.302 865.688 111.465 739.492Z" stroke="white" stroke-miterlimit="10"/>
<path d="M711.962 590.679C822.372 421.781 767.989 165.203 599.489 53.4908C427.787 -60.3144 176.103 -8.43261 62.2908 165.98C-52.4188 341.662 -2.9199 588.302 174.78 703.177C348.967 815.778 600.941 760.717 711.962 590.679Z" stroke="white" stroke-miterlimit="10"/>
<path d="M236.372 666.869C78.7486 563.58 34.1426 346.25 136.383 189.366C237.401 34.4897 462.62 -9.75601 613.886 89.3776C762.8 186.951 809.016 420.857 713.875 566.881C617.712 714.364 391.136 768.267 236.372 666.869Z" stroke="white" stroke-miterlimit="10"/>
<path d="M713.492 543.097C795.504 417.227 754.716 209.701 626.004 125.288C494.559 39.0661 296.149 77.7808 208.179 212.767C118.773 349.982 157.617 540.059 295.683 630.586C430.388 718.916 630.403 670.616 713.492 543.097Z" stroke="white" stroke-miterlimit="10"/>
<path d="M352.068 594.315C234.908 516.39 201.757 353.499 277.09 236.184C351.134 120.944 523.061 88.542 635.204 161.195C745.725 232.766 779.132 413.472 710.209 519.32C640.282 626.705 466.057 670.098 352.068 594.315Z" stroke="white" stroke-miterlimit="10"/>
<path d="M703.455 495.558C760.574 407.835 732.865 256.558 640.966 197.138C547.672 136.807 404.145 164.809 342.53 259.617C279.572 356.375 308.485 493.732 405.025 558.063C499.689 621.145 645.46 584.655 703.455 495.558Z" stroke="white" stroke-miterlimit="10"/>
<path d="M453.92 521.827C374.902 470.014 352.759 361.588 403.925 283.075C454.092 206.057 567.865 183.971 642.677 233.08C715.635 280.977 739.061 400.628 692.672 471.832C645.552 544.189 530.787 572.258 453.92 521.827Z" stroke="white" stroke-miterlimit="10"/>
<path d="M677.256 448.132C711.774 395.121 695.842 304.989 639.761 269.075C583.453 232.99 497.502 250.071 460.688 306.559C423.247 364.041 441.102 447.285 498.198 485.628C554.77 523.628 642.261 501.873 677.256 448.132Z" stroke="white" stroke-miterlimit="10"/>
<path d="M537.28 449.447C497.806 423.643 486.632 369.294 512.271 330.074C537.619 291.298 593.727 280.164 631.659 305.074C669.056 329.521 680.581 387.696 656.643 424.452C632.551 461.584 576.083 474.791 537.28 449.447Z" stroke="white" stroke-miterlimit="10"/>
<path d="M630.265 400.804C642.628 381.892 636.831 353.688 617.78 341.121C608.174 334.977 596.542 332.844 585.381 335.181C574.22 337.519 564.42 344.138 558.086 353.62C554.945 358.346 552.776 363.651 551.704 369.223C550.633 374.796 550.68 380.526 551.844 386.08C553.009 391.634 555.266 396.901 558.486 401.574C561.705 406.247 565.822 410.231 570.597 413.298C580.219 419.367 591.824 421.457 602.959 419.125C614.094 416.794 623.885 410.224 630.265 400.804Z" stroke="white" stroke-miterlimit="10"/>
<path d="M597.544 377.198C532.484 477.968 421.254 550.163 322.331 613.636C211.772 684.595 96.5919 748.121 -18.0654 811.988C-136.125 877.772 -254.762 943.089 -368.287 1016.54C-465.121 1079.21 -569.655 1149.4 -634.687 1246.91" stroke="white" stroke-miterlimit="10"/>
<path d="M597.544 377.198C538.78 478.826 435.233 553.734 340.719 619.569C233.461 694.27 120.928 761.223 9.05584 828.721C-99.2635 894.039 -207.889 959.203 -311.797 1031.41C-409.717 1099.48 -517.067 1176.67 -580.263 1280.27" stroke="white" stroke-miterlimit="10"/>
<path d="M597.545 377.198C546.462 479.571 448.891 556.554 359.32 624.24C255.625 702.559 145.984 772.738 37.2579 843.628C-67.6084 912.04 -172.832 980.445 -272.578 1056.25C-365.797 1127.1 -464.468 1206.87 -523.439 1310.06" stroke="white" stroke-miterlimit="10"/>
<path d="M597.544 377.198C552.591 482.967 456.749 564.02 369.516 634.637C272.109 713.515 168.801 784.667 66.4316 856.771C-31.8555 926.022 -130.204 995.367 -223.037 1071.78C-313.95 1146.65 -408.183 1230.95 -464.313 1336.33" stroke="white" stroke-miterlimit="10"/>
<path d="M597.545 377.198C560.281 482.314 470.719 565.391 388.917 637.047C295.441 718.946 195.299 792.938 96.4301 868.099C-82.4846 1004.09 -300.863 1151.45 -402.993 1358.97" stroke="white" stroke-miterlimit="10"/>
<path d="M597.544 377.198C566.884 486.405 476.586 574.658 396.096 649.706C310.147 729.852 217.98 803.102 127.195 877.597C-44.6734 1018.49 -245.002 1170.56 -339.711 1377.92" stroke="white" stroke-miterlimit="10"/>
<path d="M597.544 377.198C573.594 488.256 485.95 580.305 408.21 657.897C328.507 737.418 242.748 810.628 158.45 885.132C-5.13695 1029.77 -189.986 1186.23 -274.982 1393.06" stroke="white" stroke-miterlimit="10"/>
<path d="M597.544 377.198C581.543 482.569 505.582 572.773 436.144 648.845C358.555 733.89 273.302 811.413 190.183 890.829C33.829 1040.01 -130.343 1198.45 -209.131 1404.4" stroke="white" stroke-miterlimit="10"/>
<path d="M597.545 377.198C587.922 485.064 513.138 579.976 445.189 659.239C374.854 741.287 297.512 817.058 222.261 894.512C74.8914 1046.22 -74.716 1207.23 -142.58 1411.77" stroke="white" stroke-miterlimit="10"/>
<path d="M597.544 377.198C589.929 487.462 525.626 580.672 458.591 664.628C394.319 745.051 323.22 819.788 254.442 896.269C116.266 1049.8 -19.3463 1212.63 -75.9174 1415.3" stroke="white" stroke-miterlimit="10"/>
<path d="M597.544 377.198C595.645 580.103 407.661 750.74 286.626 896.084C157.597 1050.89 35.3938 1214.63 -9.55262 1414.92" stroke="white" stroke-miterlimit="10"/>
<path d="M597.544 377.198C607.718 575.618 431.197 748.002 318.619 893.873C198.669 1049.43 89.1945 1213.26 55.8461 1410.52" stroke="white" stroke-miterlimit="10"/>
<path d="M597.544 377.198C619.152 570.693 454.806 743.454 350.427 889.798C239.362 1045.51 141.858 1208.68 120.26 1402.32" stroke="white" stroke-miterlimit="10"/>
<path d="M597.544 377.198C630.098 565.267 478.326 737.312 381.786 883.779C279.374 1039.06 192.986 1200.87 183.111 1390.26" stroke="white" stroke-miterlimit="10"/>
<path d="M597.544 377.198C640.724 559.293 501.549 729.548 412.504 875.8C318.414 1030.12 242.223 1189.73 244.051 1374.36" stroke="white" stroke-miterlimit="10"/>
<path d="M597.544 377.198C650.573 552.811 524.622 720.352 442.62 865.937C356.539 1018.77 289.721 1175.7 303.171 1354.61" stroke="white" stroke-miterlimit="10"/>
<path d="M597.544 377.198C660.016 545.634 547.256 709.646 472.011 854.241C393.565 1004.98 335.219 1158.72 360.188 1331.22" stroke="white" stroke-miterlimit="10"/>
<path d="M597.544 377.198C668.749 538.264 569.437 697.106 500.456 840.704C429.216 989.002 378.776 1138.68 415.034 1304.19" stroke="white" stroke-miterlimit="10"/>
<path d="M597.544 377.198C676.902 530.085 591.082 683.311 528.097 825.488C463.697 970.904 420.551 1116.28 467.921 1273.75" stroke="white" stroke-miterlimit="10"/>
<path d="M597.544 377.198C684.169 521.598 612.076 667.914 554.704 808.533C496.627 950.887 460.593 1090.95 518.707 1239.82" stroke="white" stroke-miterlimit="10"/>
<path d="M597.544 377.198C690.708 512.772 632.39 650.962 580.224 789.985C527.941 929.292 498.858 1063.09 567.427 1202.74" stroke="white" stroke-miterlimit="10"/>
<path d="M597.544 377.198C696.479 503.217 651.921 632.82 604.617 769.839C557.617 906.015 535.647 1032.87 614.196 1162.49" stroke="white" stroke-miterlimit="10"/>
<path d="M597.544 377.198C701.166 493.451 670.461 613.215 627.773 748.229C585.642 881.524 571.279 1000.21 658.962 1119.35" stroke="white" stroke-miterlimit="10"/>
<path d="M597.544 377.198C649.235 428.344 683.89 484.85 683.456 559.034C683.103 615.96 665.277 671.059 649.649 725.218C611.939 855.905 605.85 965.288 701.66 1073.24" stroke="white" stroke-miterlimit="10"/>
<path d="M597.544 377.198C651.413 424.043 692.391 476.83 695.365 550.82C697.439 601.957 682.965 651.893 670.143 700.895C658.133 746.785 645.519 793.772 646.734 841.723C648.744 917.844 688.243 974.21 742.081 1024.7" stroke="white" stroke-miterlimit="10"/>
<path d="M597.544 377.198C651.954 418.785 698.786 466.009 706.782 537.128C712.042 583.876 699.764 630.246 689.176 675.345C678.588 720.445 666.692 766.816 672.205 813.593C680.509 883.963 726.358 931.515 779.883 973.52" stroke="white" stroke-miterlimit="10"/>
<path d="M597.544 377.198C653.137 414.309 705.643 457.39 716.83 527.019C723.401 567.746 714.432 608.812 706.585 648.644C698.739 688.476 690.143 729.559 696.966 770.246C708.494 839.147 759.967 882.595 814.755 920.107" stroke="white" stroke-miterlimit="10"/>
<path d="M597.544 377.198C649.777 407.542 704.195 442.505 722.498 503.775C733.929 542.157 727.571 582.17 722.394 620.964C717.558 657.334 713.135 693.972 722.684 729.97C739.776 793.82 793.254 831.675 846.572 864.72" stroke="white" stroke-miterlimit="10"/>
<path d="M597.544 377.198C650.878 403.85 711.947 435.354 731.515 496.456C741.514 527.611 738.452 560.298 736.442 592.449C729.835 700.997 781.337 755.686 875.275 807.659" stroke="white" stroke-miterlimit="10"/>
<path d="M597.545 377.198C647.177 398.193 707.493 421.918 734.015 473.039C748.818 501.52 747.677 531.752 748.888 562.887C753.012 663.085 813.662 706.445 901.256 748.636" stroke="white" stroke-miterlimit="10"/>
<path d="M597.545 377.198C648.503 394.988 713.298 413.766 742.647 463.816C755.148 485.157 756.083 509.029 759.607 532.784C773.014 622.555 845.328 656.275 924.131 688.375" stroke="white" stroke-miterlimit="10"/>
<path d="M597.545 377.198C645.706 390.579 709.891 402.985 743.986 443.941C758.611 461.513 762.279 480.79 768.386 502.047C790.675 580.134 874.121 604.025 943.785 626.915" stroke="white" stroke-miterlimit="10"/>
<path d="M597.544 377.198C673.426 392.862 737.519 401.498 775.442 470.865C810.38 534.864 895.826 548.566 960.184 564.48" stroke="white" stroke-miterlimit="10"/>
<path d="M597.544 377.198C666.981 386.59 731.087 389.01 780.59 439.383C827.479 487.074 911.211 491.351 972.687 501.602" stroke="white" stroke-miterlimit="10"/>
<path d="M597.545 377.198C661.797 381.368 724.593 381.914 783.592 407.585C843.851 433.853 917.14 432.819 981.322 437.96" stroke="white" stroke-miterlimit="10"/>
<path d="M597.544 377.198C726.94 376.374 856.345 375.398 985.759 374.269" stroke="white" stroke-miterlimit="10"/>
<path d="M597.545 377.198C662.618 372.22 724.478 370.253 783.984 343.918C845.254 316.79 920.437 316.7 985.668 310.58" stroke="white" stroke-miterlimit="10"/>
<path d="M597.544 377.198C669.17 366.592 727.804 360.526 780.929 312.212C831.799 265.929 917.303 258.807 980.945 247.123" stroke="white" stroke-miterlimit="10"/>
<path d="M597.544 377.198C644.242 366.996 703.253 359.004 741.987 327.303C757.887 314.3 764.93 297.295 776.023 280.742C817.137 219.371 905.672 202.214 971.462 184.196" stroke="white" stroke-miterlimit="10"/>
<path d="M597.544 377.198C645.799 363.126 706.868 349.735 740.546 308.393C754.979 290.676 760.004 270.112 768.881 249.645C801.041 175.632 887.434 147.661 957.212 122.021" stroke="white" stroke-miterlimit="10"/>
<path d="M597.544 377.198C648.599 358.53 709.318 338.891 738.219 288.589C750.538 267.113 753.062 242.38 759.917 219.051C784.773 134.335 862.933 95.8034 938.252 60.8207" stroke="white" stroke-miterlimit="10"/>
<path d="M597.545 377.198C647.241 355.243 703.348 331.167 729.001 279.465C743.064 251.028 743.469 219.637 748.888 189.057C765.531 94.8538 835.067 45.8388 914.777 0.851284" stroke="white" stroke-miterlimit="10"/>
<path d="M597.545 377.199C650.269 349.643 703.852 319.458 724.004 260.109C735.052 227.598 733.432 193.524 735.891 159.787C743.393 57.3455 804.118 -2.17927 886.99 -57.6806" stroke="white" stroke-miterlimit="10"/>
<path d="M597.544 377.198C651.091 344.75 701.139 308.204 716.957 244.823C726.184 207.863 721.469 169.005 721.109 131.412C720.123 22.1547 769.68 -47.9763 855.158 -114.491" stroke="white" stroke-miterlimit="10"/>
<path d="M597.544 377.198C654.363 337.702 701.833 293.089 710.046 221.163C714.511 182.039 707.885 142.815 704.639 103.855C694.998 -11.0599 732.944 -92.2644 819.77 -169.529" stroke="white" stroke-miterlimit="10"/>
<path d="M597.544 377.198C651.654 334.37 693.578 286.923 699.964 215.748C704.142 169.309 693.449 123.015 686.482 77.3907C668.014 -43.4755 693.215 -134.12 781.081 -222.426" stroke="white" stroke-miterlimit="10"/>
<path d="M597.545 377.199C649.403 330.545 687.152 278.718 690.172 206.948C692.352 154.565 677.891 102.752 666.801 52.08C639.361 -73.407 651.303 -173.918 739.487 -273.058" stroke="white" stroke-miterlimit="10"/>
<path d="M597.545 377.198C648.656 325.214 681.48 268.288 679.865 194.123C678.585 137.238 660.733 82.3039 645.603 28.0176C609.489 -101.578 606.872 -211.315 695.342 -321.174" stroke="white" stroke-miterlimit="10"/>
<path d="M597.544 377.198C699.948 259.455 668.333 139.904 623.066 5.27478C578.317 -127.794 560.524 -246.544 648.96 -366.63" stroke="white" stroke-miterlimit="10"/>
<path d="M597.544 377.198C695.905 249.163 652.783 120.529 599.256 -16.0377C545.997 -151.908 512.346 -279.42 600.515 -409.275" stroke="white" stroke-miterlimit="10"/>
<path d="M597.544 377.198C690.913 239.112 635.924 102.29 574.25 -35.8689C512.577 -174.028 462.414 -309.753 550.121 -448.939" stroke="white" stroke-miterlimit="10"/>
<path d="M597.544 377.198C775.223 76.8428 321.258 -184.962 497.764 -485.427" stroke="white" stroke-miterlimit="10"/>
<path d="M597.544 377.198C758.374 61.4611 293.588 -197.325 443.478 -518.653" stroke="white" stroke-miterlimit="10"/>
<path d="M597.544 377.198C668.994 212.518 572.611 56.0815 492.803 -85.6276C412.338 -228.513 328.364 -381.952 387.609 -548.455" stroke="white" stroke-miterlimit="10"/>
<path d="M597.544 377.198C659.702 205.132 549.202 43.8113 463.886 -98.7831C377.162 -243.724 286.482 -400.301 330.601 -574.747" stroke="white" stroke-miterlimit="10"/>
<path d="M597.545 377.198C649.951 198.486 525.193 33.0488 434.314 -110.105C340.942 -257.129 244.069 -416.104 272.765 -597.418" stroke="white" stroke-miterlimit="10"/>
<path d="M597.544 377.198C639.467 192.334 501.006 24.1152 404.138 -119.604C303.656 -268.697 201.089 -429.174 214.251 -616.389" stroke="white" stroke-miterlimit="10"/>
<path d="M597.545 377.198C628.655 186.895 476.523 16.7771 373.56 -127.171C265.723 -277.925 157.4 -439.565 155.237 -631.549" stroke="white" stroke-miterlimit="10"/>
<path d="M597.545 377.198C617.237 181.897 452.041 11.3407 342.62 -132.801C227.107 -284.931 112.99 -447.054 95.7007 -642.863" stroke="white" stroke-miterlimit="10"/>
<path d="M597.544 377.198C605.474 177.806 427.484 7.37019 311.335 -136.554C188.004 -289.359 67.5606 -451.772 35.5845 -650.348" stroke="white" stroke-miterlimit="10"/>
<path d="M597.545 377.198C593.185 174.003 403.301 5.31955 279.827 -138.233C148.427 -291.155 21.2397 -453.429 -25.0991 -653.813" stroke="white" stroke-miterlimit="10"/>
<path d="M597.544 377.198C588.523 267.011 522.738 174.429 454.69 91.2966C389.515 11.695 317.773 -62.2903 248.325 -138.124C108.724 -290.477 -25.9438 -452.142 -86.2124 -653.509" stroke="white" stroke-miterlimit="10"/>
<path d="M597.544 377.198C586.537 269.219 509.699 175.476 440.667 96.8597C369.608 15.9454 292.015 -58.9898 216.789 -135.953C68.8704 -287.318 -73.9433 -447.563 -147.867 -649.191" stroke="white" stroke-miterlimit="10"/>
<path d="M597.544 377.198C579.851 269.962 499.29 179.803 427.267 103.305C350.147 21.4156 266.544 -54.122 185.281 -131.819C28.921 -281.415 -122.744 -439.822 -209.969 -640.935" stroke="white" stroke-miterlimit="10"/>
<path d="M597.545 377.198C572.132 266.229 481.095 175.377 402.367 98.6814C322.431 20.789 237.24 -51.4875 154.048 -125.784C-10.7905 -273.003 -172.14 -428.917 -272.299 -628.868" stroke="white" stroke-miterlimit="10"/>
<path d="M597.545 377.198C565.357 268.113 471.203 181.129 389.72 107.022C303.692 28.7904 212.428 -43.4729 123.12 -117.83C-50.3125 -262.182 -221.801 -414.7 -334.71 -612.939" stroke="white" stroke-miterlimit="10"/>
<path d="M597.544 377.198C558.758 270.384 461.936 187.516 377.809 116.138C285.593 37.8888 188.196 -33.9933 92.6041 -107.978C-89.4176 -248.849 -271.56 -397.289 -396.918 -593.167" stroke="white" stroke-miterlimit="10"/>
<path d="M597.544 377.198C552.251 269.954 446.516 188.57 357.613 118.89C261.864 43.8301 161.515 -25.3008 62.6934 -96.2831C-127.876 -233.148 -321.111 -376.596 -458.433 -569.819" stroke="white" stroke-miterlimit="10"/>
<path d="M597.545 377.198C545.011 271.511 435.476 193.933 342.452 126.334C241.83 53.2248 136.986 -13.911 33.4131 -82.8175C-164.727 -214.607 -372.029 -352.183 -518.957 -542.792" stroke="white" stroke-miterlimit="10"/>
<path d="M597.545 377.198C537.091 272.376 421.176 197.323 323.016 131.525C219.174 61.9223 111.683 -2.09876 5.1049 -67.5163C-201.244 -194.331 -419.947 -325.264 -578.095 -512.278" stroke="white" stroke-miterlimit="10"/>
<path d="M597.544 377.198C530.756 276.493 414.108 206.439 313.703 143.97C203.81 75.5936 90.2986 13.201 -22.3005 -50.5862C-236.484 -171.888 -466.436 -295.374 -635.28 -478.453" stroke="white" stroke-miterlimit="10"/>
<path d="M597.545 377.198C522.661 278.216 401.139 211.672 295.421 151.274C182.611 86.8054 66.6575 27.9757 -48.613 -32.0367C-270.313 -147.413 -511.266 -262.725 -690.197 -441.242" stroke="white" stroke-miterlimit="10"/>
<path d="M597.545 377.198C517.008 283.436 395.315 221.827 287.765 165.096C169.114 102.535 47.4655 45.8412 -73.589 -11.8654C-302.197 -120.829 -553.813 -227.34 -742.208 -400.933" stroke="white" stroke-miterlimit="10"/>
<path d="M597.545 377.198C509.15 286.354 383.388 228.579 270.765 174.416C149.637 116.164 25.9639 63.3292 -97.2808 9.73455C-332.41 -92.4721 -593.607 -189.589 -791.13 -357.7" stroke="white" stroke-miterlimit="10"/>
<path d="M597.545 377.199C504.219 292.477 378.844 239.684 264.912 189.462C138.291 133.66 9.21014 83.5587 -119.467 32.771C-250.47 -18.9255 -381.551 -70.6734 -509.972 -128.534C-623.108 -179.593 -738.604 -234.415 -836.6 -311.645" stroke="white" stroke-miterlimit="10"/>
<path d="M597.544 377.198C496.892 296.624 368.101 247.776 249.474 200.617C120.862 149.487 -9.78427 103.545 -140.151 57.1067C-273.368 9.66424 -406.736 -37.6518 -537.871 -90.6341C-654.986 -137.959 -775.873 -188.134 -878.502 -262.985" stroke="white" stroke-miterlimit="10"/>
<path d="M597.545 377.198C491.282 302.438 361.307 258.065 239.935 214.655C107.907 167.401 -25.741 125.221 -159.277 82.6618C-296.238 38.9723 -433.349 -4.45224 -568.575 -53.2529C-687.569 -96.2167 -811.347 -140.93 -916.935 -211.878" stroke="white" stroke-miterlimit="10"/>
<path d="M597.544 377.198C487.569 309.605 358.101 270.203 235.944 231.144C99.3245 187.452 -38.764 148.569 -176.683 109.322C-317.989 68.9915 -459.595 29.1888 -599.389 -15.946C-719.043 -54.612 -842.768 -94.4229 -951.692 -158.501" stroke="white" stroke-miterlimit="10"/>
<path d="M597.544 377.198C482.446 315.918 351.246 281.312 226.403 246.223C87.5044 207.195 -52.5231 172.315 -192.392 137.02C-335.204 101.001 -478.076 65.2132 -619.778 24.6921C-742.693 -10.4038 -867.889 -46.7188 -983.006 -103.124" stroke="white" stroke-miterlimit="10"/>
<path d="M597.544 377.198C476.076 321.891 341.465 291.775 212.264 260.445C73.1925 226.735 -66.6421 196.372 -206.339 165.556C-474.541 106.535 -754.839 57.5712 -1010.33 -45.9963" stroke="white" stroke-miterlimit="10"/>
<path d="M597.544 377.198C471.812 329.105 336.093 303.696 204.662 276.678C63.9788 247.752 -77.2565 221.608 -218.412 195.066C-490.573 143.866 -769.857 100.204 -1033.44 13.0001" stroke="white" stroke-miterlimit="10"/>
<path d="M597.545 377.198C468.104 336.682 331.513 315.861 198.088 293.242C56.0989 269.187 -86.2796 247.388 -228.562 225.2C-503.701 182.258 -782.621 144.514 -1052.14 73.1809" stroke="white" stroke-miterlimit="10"/>
<path d="M597.544 377.198C326.162 310.373 40.0399 290.187 -236.775 255.901C-513.59 221.616 -792.835 190.494 -1066.56 134.585" stroke="white" stroke-miterlimit="10"/>
<path d="M597.544 377.198C321.154 327.034 36.3921 312.693 -243.019 287.051C-521.225 261.541 -800.287 237.824 -1076.74 196.854" stroke="white" stroke-miterlimit="10"/>
<path d="M597.545 377.198C317.604 344.128 33.9439 335.303 -247.32 318.588C-526.002 302.044 -804.966 286.311 -1082.93 259.942" stroke="white" stroke-miterlimit="10"/>
<path d="M597.544 377.198C37.3123 345.969 -524.689 347.975 -1085.26 323.425" stroke="white" stroke-miterlimit="10"/>
<path d="M597.545 377.198C37.0491 380.651 -523.463 383.956 -1083.99 387.114" stroke="white" stroke-miterlimit="10"/>
<path d="M597.545 377.198C39.4819 415.27 -520.867 419.942 -1079.38 450.815" stroke="white" stroke-miterlimit="10"/>
<path d="M597.545 377.198C318.458 413.678 35.2783 425.577 -245.332 445.764C-520.944 465.576 -796.687 485.483 -1071.6 514.302" stroke="white" stroke-miterlimit="10"/>
<path d="M597.545 377.198C322.409 430.652 38.3009 447.918 -240.11 477.169C-514.097 505.985 -788.359 535.119 -1060.66 577.1" stroke="white" stroke-miterlimit="10"/>
<path d="M597.544 377.198C327.774 447.193 42.3826 470.091 -233.179 508.309C-505.242 546.054 -777.732 584.108 -1046.91 639.352" stroke="white" stroke-miterlimit="10"/>
<path d="M597.545 377.198C467.67 419.623 329.962 441.563 195.837 465.913C55.9486 491.292 -84.2827 514.773 -224.403 538.914C-494.248 585.418 -764.875 632.181 -1030.21 700.549" stroke="white" stroke-miterlimit="10"/>
<path d="M597.545 377.198C473.091 426.561 337.943 452.754 207.564 481.204C67.4068 511.771 -73.3184 539.952 -213.842 568.899C-481.167 623.973 -749.753 679.107 -1010.59 760.53" stroke="white" stroke-miterlimit="10"/>
<path d="M597.544 377.198C477.316 433.735 342.943 464.418 214.767 497.114C76.3174 532.372 -62.6973 564.861 -201.569 598.169C-465.94 661.6 -732.596 724.512 -987.955 819.088" stroke="white" stroke-miterlimit="10"/>
<path d="M597.544 377.198C482.036 440.532 348.72 475.797 223.075 512.547C86.7683 552.419 -50.5288 589.064 -187.514 626.546C-448.513 698.043 -713.265 768.218 -962.155 875.915" stroke="white" stroke-miterlimit="10"/>
<path d="M597.545 377.198C485.65 447.986 351.621 488.147 226.768 529.397C94.5564 573.077 -38.7967 613.138 -171.847 654.121C-428.911 733.304 -691.952 810.139 -933.211 931.016" stroke="white" stroke-miterlimit="10"/>
<path d="M597.544 377.198C491.287 453.934 359.03 498.896 237.18 543.964C107.492 591.919 -23.6682 635.79 -154.472 680.571C-406.911 767.009 -668.689 849.943 -900.826 983.934" stroke="white" stroke-miterlimit="10"/>
<path d="M597.544 377.198C498.791 458.274 370.645 507.574 253.755 555.75C125.189 608.737 -5.35412 656.857 -135.458 705.897C-382.462 799.011 -643.665 887.572 -864.952 1034.56" stroke="white" stroke-miterlimit="10"/>
<path d="M597.545 377.198C505.098 463.234 379.483 517.245 265.923 568.842C140.414 625.842 12.5666 677.488 -114.859 729.977C-355.552 829.116 -617.075 922.943 -825.571 1082.73" stroke="white" stroke-miterlimit="10"/>
<path d="M597.544 377.198C510.372 469.012 385.629 528.3 273.775 583.795C153.25 643.555 30.0483 697.786 -92.748 752.713C-217.521 808.587 -342.526 864.469 -464.406 926.647C-575.686 983.444 -688.796 1044.7 -782.674 1128.15" stroke="white" stroke-miterlimit="10"/>
<path d="M597.545 377.198C518.454 471.602 399.159 535.018 292.664 592.907C174.14 657.324 52.2382 715.347 -69.1792 774.049C-193.086 833.928 -317.309 893.668 -437.628 960.623C-543.134 1019.32 -652.141 1082.99 -736.344 1170.88" stroke="white" stroke-miterlimit="10"/>
<path d="M597.544 377.198C524.302 476.535 406.694 545.124 302.254 606.619C189.093 673.252 72.1734 733.311 -44.1944 793.911C-163.617 855.998 -283.404 917.848 -398.943 986.977C-501.844 1048.51 -610.615 1116.18 -686.811 1210.62" stroke="white" stroke-miterlimit="10"/>
<mask id="path-129-inside-1_182_25257" fill="white">
<path fill-rule="evenodd" clip-rule="evenodd" d="M520.551 279.485L535.286 281.44L534.05 290.76L534.046 290.76C532.896 297.332 513.386 300.17 490.232 297.099C467.077 294.027 448.982 286.199 449.586 279.554L449.583 279.554L449.596 279.453C449.598 279.438 449.6 279.423 449.602 279.408C449.604 279.393 449.606 279.378 449.608 279.363L450.819 270.234L465.554 272.188C473.183 271.353 482.936 271.53 493.439 272.924C503.942 274.317 513.403 276.689 520.551 279.485Z"/>
</mask>
<path fill-rule="evenodd" clip-rule="evenodd" d="M520.551 279.485L535.286 281.44L534.05 290.76L534.046 290.76C532.896 297.332 513.386 300.17 490.232 297.099C467.077 294.027 448.982 286.199 449.586 279.554L449.583 279.554L449.596 279.453C449.598 279.438 449.6 279.423 449.602 279.408C449.604 279.393 449.606 279.378 449.608 279.363L450.819 270.234L465.554 272.188C473.183 271.353 482.936 271.53 493.439 272.924C503.942 274.317 513.403 276.689 520.551 279.485Z" fill="black"/>
<path d="M520.551 279.485L520.187 280.416L520.3 280.46L520.42 280.476L520.551 279.485ZM535.286 281.44L536.278 281.571L536.409 280.58L535.418 280.448L535.286 281.44ZM534.05 290.76L533.918 291.751L534.91 291.883L535.041 290.892L534.05 290.76ZM534.046 290.76L534.178 289.768L533.227 289.642L533.061 290.587L534.046 290.76ZM449.586 279.554L450.581 279.645L450.668 278.689L449.717 278.563L449.586 279.554ZM449.583 279.554L448.592 279.423L448.46 280.414L449.451 280.545L449.583 279.554ZM449.596 279.453L450.588 279.585L450.589 279.572L449.596 279.453ZM449.608 279.363L450.598 279.507L450.6 279.494L449.608 279.363ZM450.819 270.234L450.951 269.242L449.96 269.111L449.828 270.102L450.819 270.234ZM465.554 272.188L465.422 273.18L465.542 273.196L465.663 273.182L465.554 272.188ZM520.42 280.476L535.155 282.431L535.418 280.448L520.683 278.493L520.42 280.476ZM534.295 281.308L533.058 290.629L535.041 290.892L536.278 281.571L534.295 281.308ZM534.181 289.769L534.178 289.768L533.915 291.751L533.918 291.751L534.181 289.769ZM533.061 290.587C532.859 291.746 531.797 292.957 529.535 294.055C527.312 295.134 524.155 295.99 520.247 296.556C512.446 297.687 501.875 297.635 490.363 296.107L490.1 298.09C501.743 299.634 512.505 299.699 520.534 298.535C524.543 297.954 527.926 297.06 530.408 295.854C532.851 294.668 534.659 293.059 535.032 290.932L533.061 290.587ZM490.363 296.107C478.851 294.58 468.633 291.874 461.396 288.748C457.772 287.183 454.947 285.534 453.082 283.912C451.185 282.262 450.475 280.817 450.581 279.645L448.59 279.464C448.394 281.615 449.72 283.639 451.77 285.422C453.852 287.233 456.885 288.978 460.603 290.584C468.051 293.802 478.458 296.545 490.1 298.09L490.363 296.107ZM449.717 278.563L449.714 278.563L449.451 280.545L449.454 280.546L449.717 278.563ZM450.574 279.686L450.588 279.585L448.605 279.322L448.592 279.423L450.574 279.686ZM450.589 279.572C450.59 279.561 450.592 279.55 450.593 279.54L448.611 279.277C448.608 279.296 448.606 279.315 448.603 279.334L450.589 279.572ZM450.593 279.54C450.595 279.529 450.596 279.518 450.598 279.507L448.619 279.219C448.616 279.238 448.613 279.257 448.611 279.277L450.593 279.54ZM450.6 279.494L451.811 270.365L449.828 270.102L448.617 279.231L450.6 279.494ZM450.688 271.225L465.422 273.18L465.685 271.197L450.951 269.242L450.688 271.225ZM465.663 273.182C473.196 272.357 482.867 272.53 493.308 273.915L493.571 271.932C483.006 270.531 473.171 270.348 465.445 271.194L465.663 273.182ZM493.308 273.915C503.748 275.3 513.129 277.655 520.187 280.416L520.916 278.554C513.678 275.722 504.135 273.334 493.571 271.932L493.308 273.915Z" fill="white" mask="url(#path-129-inside-1_182_25257)"/>
<path d="M534.81 281.227C534.621 282.645 533.42 283.972 531.139 285.111C528.876 286.24 525.669 287.122 521.728 287.705C513.853 288.87 503.164 288.825 491.534 287.282C479.904 285.739 469.573 282.995 462.274 279.817C458.621 278.227 455.755 276.539 453.865 274.859C451.96 273.165 451.146 271.571 451.334 270.153C451.522 268.735 452.724 267.409 455.005 266.27C457.267 265.141 460.474 264.259 464.415 263.676C472.29 262.511 482.98 262.556 494.61 264.098C506.239 265.641 516.571 268.385 523.87 271.563C527.522 273.154 530.389 274.841 532.278 276.522C534.184 278.216 534.998 279.81 534.81 281.227Z" fill="black" stroke="white"/>
<mask id="path-132-inside-2_182_25257" fill="white">
<path fill-rule="evenodd" clip-rule="evenodd" d="M424.488 527.64L424.553 527.748L424.55 527.75C427.72 533.621 414.165 547.938 394.087 559.873C374.009 571.809 354.956 576.876 351.312 571.287L351.31 571.288L346.505 563.206L359.283 555.611C364.754 550.228 372.518 544.324 381.625 538.91C390.732 533.497 399.628 529.496 406.971 527.262L419.748 519.666L424.467 527.604C424.47 527.61 424.474 527.616 424.477 527.622C424.481 527.628 424.485 527.634 424.488 527.64Z"/>
</mask>
<path fill-rule="evenodd" clip-rule="evenodd" d="M424.488 527.64L424.553 527.748L424.55 527.75C427.72 533.621 414.165 547.938 394.087 559.873C374.009 571.809 354.956 576.876 351.312 571.287L351.31 571.288L346.505 563.206L359.283 555.611C364.754 550.228 372.518 544.324 381.625 538.91C390.732 533.497 399.628 529.496 406.971 527.262L419.748 519.666L424.467 527.604C424.47 527.61 424.474 527.616 424.477 527.622C424.481 527.628 424.485 527.634 424.488 527.64Z" fill="black"/>
<path d="M424.488 527.64L423.626 528.146L423.629 528.151L424.488 527.64ZM424.553 527.748L425.064 528.608L425.923 528.097L425.412 527.237L424.553 527.748ZM424.55 527.75L424.039 526.89L423.214 527.381L423.67 528.225L424.55 527.75ZM351.312 571.287L352.15 570.741L351.626 569.937L350.801 570.427L351.312 571.287ZM351.31 571.288L350.45 571.799L350.961 572.659L351.821 572.148L351.31 571.288ZM346.505 563.206L345.994 562.347L345.135 562.858L345.646 563.717L346.505 563.206ZM359.283 555.611L359.794 556.47L359.898 556.408L359.984 556.324L359.283 555.611ZM406.971 527.262L407.262 528.219L407.378 528.183L407.482 528.121L406.971 527.262ZM419.748 519.666L420.608 519.155L420.097 518.296L419.237 518.807L419.748 519.666ZM424.467 527.604L423.607 528.115L423.61 528.12L424.467 527.604ZM423.629 528.151L423.693 528.259L425.412 527.237L425.348 527.129L423.629 528.151ZM424.042 526.889L424.039 526.89L425.061 528.609L425.064 528.608L424.042 526.889ZM423.67 528.225C424.229 529.26 424.146 530.868 423.051 533.132C421.975 535.357 420.026 537.984 417.31 540.849C411.887 546.571 403.558 553.079 393.576 559.013L394.598 560.733C404.693 554.731 413.18 548.114 418.762 542.225C421.548 539.286 423.649 536.487 424.851 534.003C426.034 531.558 426.456 529.175 425.43 527.275L423.67 528.225ZM393.576 559.013C383.593 564.948 373.896 569.155 366.279 571.185C362.464 572.202 359.225 572.659 356.757 572.541C354.245 572.421 352.793 571.726 352.15 570.741L350.475 571.833C351.654 573.642 353.949 574.409 356.662 574.539C359.418 574.67 362.881 574.161 366.794 573.118C374.634 571.028 384.502 566.734 394.598 560.733L393.576 559.013ZM350.801 570.427L350.799 570.429L351.821 572.148L351.823 572.146L350.801 570.427ZM352.169 570.777L347.365 562.695L345.646 563.717L350.45 571.799L352.169 570.777ZM347.016 564.066L359.794 556.47L358.772 554.751L345.994 562.347L347.016 564.066ZM359.984 556.324C365.386 551.008 373.083 545.152 382.136 539.77L381.114 538.051C371.954 543.496 364.121 549.447 358.581 554.898L359.984 556.324ZM382.136 539.77C391.19 534.388 400.012 530.425 407.262 528.219L406.68 526.305C399.245 528.567 390.275 532.605 381.114 538.051L382.136 539.77ZM407.482 528.121L420.259 520.526L419.237 518.807L406.46 526.402L407.482 528.121ZM418.889 520.177L423.607 528.115L425.326 527.093L420.608 519.155L418.889 520.177ZM423.61 528.12C423.613 528.124 423.615 528.129 423.618 528.133L425.337 527.111C425.332 527.103 425.328 527.095 425.324 527.088L423.61 528.12ZM423.618 528.133C423.62 528.137 423.623 528.141 423.626 528.146L425.35 527.133C425.346 527.126 425.342 527.119 425.337 527.111L423.618 528.133Z" fill="white" mask="url(#path-132-inside-2_182_25257)"/>
<path d="M419.243 519.795C419.974 521.025 419.853 522.81 418.768 525.118C417.692 527.406 415.721 530.085 412.988 532.985C407.529 538.778 399.111 545.366 389.027 551.361C378.942 557.356 369.133 561.603 361.434 563.631C357.582 564.646 354.287 565.098 351.762 564.95C349.217 564.8 347.591 564.054 346.86 562.824C346.129 561.595 346.25 559.809 347.335 557.502C348.411 555.214 350.382 552.534 353.114 549.635C358.574 543.841 366.992 537.253 377.076 531.258C387.161 525.263 396.97 521.016 404.668 518.988C408.521 517.973 411.816 517.522 414.34 517.67C416.885 517.819 418.512 518.566 419.243 519.795Z" fill="black" stroke="white"/>
</g>
</g>
<mask id="path-135-inside-3_182_25257" fill="white">
<path fill-rule="evenodd" clip-rule="evenodd" d="M189.933 116.511L226.813 127.902L219.609 151.226L219.601 151.224C213.812 167.552 162.635 166.365 104.688 148.467C46.7421 130.57 3.80993 102.689 8.23674 85.9406L8.22967 85.9384L8.3153 85.6612C8.32394 85.6322 8.33273 85.6032 8.34166 85.5743C8.3506 85.5454 8.35967 85.5165 8.36888 85.4877L15.4338 62.6138L52.313 74.0045C72.206 75.1721 97.094 79.852 123.374 87.9691C149.655 96.0862 172.847 106.257 189.933 116.511Z"/>
</mask>
<path fill-rule="evenodd" clip-rule="evenodd" d="M189.933 116.511L226.813 127.902L219.609 151.226L219.601 151.224C213.812 167.552 162.635 166.365 104.688 148.467C46.7421 130.57 3.80993 102.689 8.23674 85.9406L8.22967 85.9384L8.3153 85.6612C8.32394 85.6322 8.33273 85.6032 8.34166 85.5743C8.3506 85.5454 8.35967 85.5165 8.36888 85.4877L15.4338 62.6138L52.313 74.0045C72.206 75.1721 97.094 79.852 123.374 87.9691C149.655 96.0862 172.847 106.257 189.933 116.511Z" fill="black"/>
<path d="M189.933 116.511L189.419 117.368L189.522 117.43L189.638 117.466L189.933 116.511ZM226.813 127.902L227.769 128.197L228.064 127.241L227.108 126.946L226.813 127.902ZM219.609 151.226L219.314 152.182L220.269 152.477L220.564 151.521L219.609 151.226ZM219.601 151.224L219.896 150.268L218.979 149.985L218.659 150.89L219.601 151.224ZM8.23674 85.9406L9.20354 86.1961L9.44876 85.2683L8.53185 84.9851L8.23674 85.9406ZM8.22967 85.9384L7.2742 85.6433L6.97909 86.5988L7.93456 86.8939L8.22967 85.9384ZM8.3153 85.6612L9.27081 85.9563L9.27361 85.9469L8.3153 85.6612ZM8.36888 85.4877L9.32145 85.7922L9.32434 85.7828L8.36888 85.4877ZM15.4338 62.6138L15.7289 61.6583L14.7735 61.3632L14.4784 62.3187L15.4338 62.6138ZM52.313 74.0045L52.0179 74.96L52.1336 74.9957L52.2544 75.0028L52.313 74.0045ZM189.638 117.466L226.518 128.857L227.108 126.946L190.228 115.555L189.638 117.466ZM225.858 127.606L218.654 150.931L220.564 151.521L227.769 128.197L225.858 127.606ZM219.904 150.271L219.896 150.268L219.306 152.179L219.314 152.182L219.904 150.271ZM218.659 150.89C217.376 154.508 213.492 157.362 207.072 159.238C200.693 161.103 192.057 161.926 181.727 161.68C161.081 161.19 133.894 156.441 104.984 147.512L104.393 149.423C133.429 158.391 160.803 163.184 181.68 163.68C192.112 163.928 200.977 163.104 207.633 161.158C214.247 159.225 218.932 156.103 220.544 151.558L218.659 150.89ZM104.984 147.512C76.0732 138.582 50.9432 127.172 33.6168 115.934C24.9482 110.312 18.2803 104.762 14.064 99.6251C9.82015 94.4542 8.22247 89.908 9.20354 86.1961L7.26993 85.6851C6.0376 90.3476 8.14639 95.5673 12.5181 100.894C16.9174 106.254 23.7741 111.934 32.5285 117.612C50.0481 128.976 75.3574 140.455 104.393 149.423L104.984 147.512ZM8.53185 84.9851L8.52478 84.983L7.93456 86.8939L7.94163 86.8961L8.53185 84.9851ZM9.18513 86.2335L9.27076 85.9563L7.35983 85.3661L7.2742 85.6433L9.18513 86.2335ZM9.27361 85.9469C9.28132 85.9211 9.28916 85.8952 9.29713 85.8694L7.3862 85.2792C7.3763 85.3112 7.36656 85.3433 7.35699 85.3755L9.27361 85.9469ZM9.29713 85.8694C9.30509 85.8436 9.31319 85.8179 9.3214 85.7922L7.41636 85.1832C7.40615 85.2152 7.3961 85.2472 7.3862 85.2792L9.29713 85.8694ZM9.32434 85.7828L16.3893 62.9089L14.4784 62.3187L7.41341 85.1926L9.32434 85.7828ZM15.1387 63.5693L52.0179 74.96L52.6081 73.049L15.7289 61.6583L15.1387 63.5693ZM52.2544 75.0028C72.0509 76.1648 96.8583 80.8259 123.079 88.9246L123.669 87.0136C97.3296 78.8782 72.3612 74.1795 52.3716 73.0062L52.2544 75.0028ZM123.079 88.9246C149.3 97.0233 172.415 107.164 189.419 117.368L190.448 115.653C173.278 105.349 150.009 95.1491 123.669 87.0136L123.079 88.9246Z" fill="white" mask="url(#path-135-inside-3_182_25257)"/>
<path d="M226.446 127.389C225.231 131.324 221.251 134.316 214.836 136.268C208.442 138.213 199.755 139.081 189.372 138.865C168.614 138.433 141.193 133.669 112.039 124.664C82.8852 115.66 57.5539 104.13 40.1675 92.781C31.4713 87.1043 24.7875 81.4886 20.6037 76.2758C16.4068 71.0467 14.8073 66.3311 16.0225 62.3967C17.2377 58.4622 21.2179 55.47 27.6326 53.5185C34.0274 51.573 42.7139 50.7047 53.0966 50.9208C73.855 51.353 101.276 56.117 130.43 65.1216C159.584 74.1263 184.915 85.6556 202.301 97.0051C210.998 102.682 217.681 108.297 221.865 113.51C226.062 118.739 227.662 123.455 226.446 127.389Z" fill="black" stroke="white"/>
<mask id="path-138-inside-4_182_25257" fill="white">
<path fill-rule="evenodd" clip-rule="evenodd" d="M361.849 124.203C383.874 103.947 397.054 82.437 391.288 76.1588C391.16 76.0194 391.023 75.8886 390.879 75.7665L383.322 67.538L369.373 80.3685C360.844 85.0788 350.854 92.3736 340.966 101.467C331.07 110.568 322.96 119.921 317.552 128.033L303.613 140.854L311.214 149.131C311.311 149.263 311.416 149.39 311.527 149.511C317.293 155.789 339.823 144.458 361.849 124.203Z"/>
</mask>
<path fill-rule="evenodd" clip-rule="evenodd" d="M361.849 124.203C383.874 103.947 397.054 82.437 391.288 76.1588C391.16 76.0194 391.023 75.8886 390.879 75.7665L383.322 67.538L369.373 80.3685C360.844 85.0788 350.854 92.3736 340.966 101.467C331.07 110.568 322.96 119.921 317.552 128.033L303.613 140.854L311.214 149.131C311.311 149.263 311.416 149.39 311.527 149.511C317.293 155.789 339.823 144.458 361.849 124.203Z" fill="black"/>
<path d="M391.288 76.1588L390.59 76.8769L390.59 76.8769L391.288 76.1588ZM361.849 124.203L362.484 124.977L361.849 124.203ZM390.879 75.7665L390.181 76.4846L390.223 76.5306L390.27 76.5705L390.879 75.7665ZM383.322 67.538L384.02 66.8199L383.382 66.1245L382.687 66.7636L383.322 67.538ZM369.373 80.3685L369.819 81.2792L369.921 81.2228L370.008 81.1429L369.373 80.3685ZM340.966 101.467L341.601 102.242L340.966 101.467ZM317.552 128.033L318.187 128.807L318.276 128.725L318.344 128.623L317.552 128.033ZM303.613 140.854L302.977 140.079L302.2 140.794L302.915 141.572L303.613 140.854ZM311.214 149.131L311.982 148.498L311.949 148.453L311.912 148.413L311.214 149.131ZM311.527 149.511L312.225 148.793L312.225 148.793L311.527 149.511ZM390.59 76.8769C391.677 78.0604 392.017 80.1212 391.276 83.2181C390.545 86.2786 388.812 90.0803 386.176 94.3828C380.912 102.974 372.178 113.344 361.213 123.428L362.484 124.977C373.544 114.805 382.414 104.293 387.804 95.4954C390.495 91.1037 392.354 87.0848 393.16 83.7134C393.957 80.3785 393.782 77.3962 391.986 75.4406L390.59 76.8769ZM390.27 76.5705C390.384 76.6664 390.49 76.7685 390.59 76.8769L391.986 75.4406C391.829 75.2702 391.663 75.1108 391.488 74.9625L390.27 76.5705ZM382.624 68.2561L390.181 76.4846L391.577 75.0484L384.02 66.8199L382.624 68.2561ZM370.008 81.1429L383.958 68.3124L382.687 66.7636L368.738 79.5941L370.008 81.1429ZM341.601 102.242C351.444 93.19 361.371 85.9449 369.819 81.2792L368.927 79.4577C360.317 84.2126 350.264 91.5572 340.331 100.693L341.601 102.242ZM318.344 128.623C323.698 120.594 331.751 111.3 341.601 102.242L340.331 100.693C330.39 109.835 322.223 119.249 316.759 127.443L318.344 128.623ZM304.248 141.628L318.187 128.807L316.916 127.258L302.977 140.079L304.248 141.628ZM311.912 148.413L304.311 140.135L302.915 141.572L310.516 149.849L311.912 148.413ZM312.225 148.793C312.138 148.699 312.057 148.6 311.982 148.498L310.446 149.764C310.565 149.926 310.693 150.081 310.829 150.229L312.225 148.793ZM361.213 123.428C350.249 133.511 339.184 141.349 330.177 145.879C325.668 148.147 321.723 149.561 318.591 150.036C315.414 150.518 313.334 150 312.225 148.793L310.829 150.229C312.603 152.161 315.501 152.58 318.858 152.071C322.262 151.554 326.407 150.047 331.004 147.735C340.21 143.105 351.423 135.149 362.484 124.977L361.213 123.428Z" fill="white" mask="url(#path-138-inside-4_182_25257)"/>
<path d="M382.833 67.706C384.103 69.0885 384.402 71.3943 383.646 74.5589C382.894 77.7027 381.128 81.562 378.478 85.8874C373.181 94.5321 364.413 104.938 353.424 115.044C342.435 125.15 331.334 133.016 322.28 137.57C317.749 139.848 313.757 141.284 310.563 141.769C307.348 142.257 305.077 141.764 303.807 140.382C302.538 138.999 302.238 136.694 302.995 133.529C303.747 130.385 305.513 126.526 308.163 122.201C313.46 113.556 322.228 103.149 333.217 93.0439C344.205 82.9383 355.306 75.072 364.361 70.5182C368.891 68.2397 372.883 66.8039 376.077 66.3192C379.292 65.8312 381.564 66.3236 382.833 67.706Z" fill="black" stroke="white"/>
<mask id="path-141-inside-5_182_25257" fill="white">
<path fill-rule="evenodd" clip-rule="evenodd" d="M287.492 350.058C316.96 356.018 342.071 354.243 343.579 346.094C343.641 345.761 343.662 345.422 343.644 345.079L345.596 334.607L326.188 330.744C317.365 326.787 305.806 323.145 292.952 320.546C279.672 317.859 267.277 316.744 257.528 317.076L239.151 313.418L237.322 323.227C237.101 323.635 236.948 324.063 236.865 324.51C235.357 332.659 258.023 344.097 287.492 350.058Z"/>
</mask>
<path fill-rule="evenodd" clip-rule="evenodd" d="M287.492 350.058C316.96 356.018 342.071 354.243 343.579 346.094C343.641 345.761 343.662 345.422 343.644 345.079L345.596 334.607L326.188 330.744C317.365 326.787 305.806 323.145 292.952 320.546C279.672 317.859 267.277 316.744 257.528 317.076L239.151 313.418L237.322 323.227C237.101 323.635 236.948 324.063 236.865 324.51C235.357 332.659 258.023 344.097 287.492 350.058Z" fill="black"/>
<path d="M343.579 346.094L342.602 345.88L342.602 345.88L343.579 346.094ZM287.492 350.058L287.658 349.071L287.492 350.058ZM343.644 345.079L342.667 344.864L342.645 344.982L342.651 345.102L343.644 345.079ZM345.596 334.607L346.573 334.822L346.76 333.819L345.76 333.62L345.596 334.607ZM326.188 330.744L325.809 331.662L325.913 331.708L326.025 331.731L326.188 330.744ZM292.952 320.546L293.119 319.559L292.952 320.546ZM257.528 317.076L257.364 318.063L257.477 318.085L257.591 318.081L257.528 317.076ZM239.151 313.418L239.315 312.431L238.354 312.239L238.174 313.203L239.151 313.418ZM237.322 323.227L238.197 323.731L238.271 323.596L238.299 323.442L237.322 323.227ZM236.865 324.51L237.842 324.723L236.865 324.51ZM342.602 345.88C342.319 347.406 340.875 348.867 337.932 350.053C335.037 351.219 330.949 352.008 325.922 352.363C315.883 353.073 302.33 352.039 287.658 349.071L287.325 351.044C302.121 354.037 315.859 355.096 326.119 354.37C331.243 354.008 335.556 353.198 338.715 351.926C341.825 350.672 344.085 348.855 344.556 346.307L342.602 345.88ZM342.651 345.102C342.665 345.368 342.649 345.627 342.602 345.88L344.556 346.307C344.633 345.895 344.659 345.477 344.637 345.056L342.651 345.102ZM344.619 334.392L342.667 344.864L344.621 345.294L346.573 334.822L344.619 334.392ZM326.025 331.731L345.433 335.594L345.76 333.62L326.352 329.757L326.025 331.731ZM292.786 321.532C305.582 324.12 317.067 327.742 325.809 331.662L326.568 329.826C317.663 325.832 306.03 322.17 293.119 319.559L292.786 321.532ZM257.591 318.081C267.247 317.753 279.564 318.858 292.786 321.532L293.119 319.559C279.78 316.861 267.306 315.736 257.465 316.07L257.591 318.081ZM238.987 314.405L257.364 318.063L257.691 316.089L239.315 312.431L238.987 314.405ZM238.299 323.442L240.128 313.632L238.174 313.203L236.345 323.012L238.299 323.442ZM237.842 324.723C237.905 324.384 238.022 324.054 238.197 323.731L236.448 322.723C236.18 323.217 235.99 323.742 235.888 324.296L237.842 324.723ZM287.658 349.071C272.986 346.104 260.044 341.778 250.984 337.207C246.448 334.917 242.939 332.593 240.673 330.386C238.372 328.145 237.562 326.24 237.842 324.723L235.888 324.296C235.414 326.854 236.872 329.435 239.317 331.816C241.798 334.232 245.515 336.668 250.14 339.002C259.404 343.677 272.529 348.051 287.325 351.044L287.658 349.071Z" fill="white" mask="url(#path-141-inside-5_182_25257)"/>
<path d="M345.298 334.115C344.959 335.92 343.303 337.491 340.317 338.718C337.353 339.936 333.207 340.758 328.157 341.143C318.064 341.912 304.476 340.928 289.793 337.997C275.111 335.066 262.15 330.751 253.065 326.153C248.52 323.853 244.972 321.495 242.664 319.225C240.338 316.937 239.371 314.843 239.71 313.038C240.05 311.234 241.706 309.663 244.692 308.436C247.656 307.218 251.802 306.396 256.852 306.011C266.945 305.242 280.533 306.226 295.215 309.157C309.898 312.087 322.859 316.403 331.943 321.001C336.489 323.301 340.037 325.659 342.345 327.929C344.67 330.216 345.637 332.311 345.298 334.115Z" fill="black" stroke="white"/>
<mask id="path-144-inside-6_182_25257" fill="white">
<path fill-rule="evenodd" clip-rule="evenodd" d="M771.208 462.16C788.622 446.297 799.081 429.415 794.567 424.453C794.462 424.337 794.349 424.228 794.229 424.127L788.33 417.641L777.299 427.691C770.569 431.368 762.68 437.072 754.864 444.192C747.041 451.318 740.622 458.649 736.333 465.013L725.311 475.055L731.246 481.58C731.325 481.691 731.411 481.798 731.504 481.899C736.017 486.861 753.793 478.024 771.208 462.16Z"/>
</mask>
<path fill-rule="evenodd" clip-rule="evenodd" d="M771.208 462.16C788.622 446.297 799.081 429.415 794.567 424.453C794.462 424.337 794.349 424.228 794.229 424.127L788.33 417.641L777.299 427.691C770.569 431.368 762.68 437.072 754.864 444.192C747.041 451.318 740.622 458.649 736.333 465.013L725.311 475.055L731.246 481.58C731.325 481.691 731.411 481.798 731.504 481.899C736.017 486.861 753.793 478.024 771.208 462.16Z" fill="black"/>
<path d="M794.567 424.453L795.269 423.738L795.269 423.738L794.567 424.453ZM771.208 462.16L771.839 462.938L771.839 462.938L771.208 462.16ZM794.229 424.127L793.527 424.842L793.571 424.89L793.621 424.933L794.229 424.127ZM788.33 417.641L789.031 416.926L788.396 416.228L787.698 416.864L788.33 417.641ZM777.299 427.691L777.741 428.604L777.843 428.548L777.931 428.468L777.299 427.691ZM754.864 444.192L754.232 443.415L754.864 444.192ZM736.333 465.013L736.965 465.79L737.055 465.709L737.123 465.607L736.333 465.013ZM725.311 475.055L724.679 474.278L723.899 474.989L724.609 475.77L725.311 475.055ZM731.246 481.58L732.02 480.956L731.986 480.909L731.947 480.865L731.246 481.58ZM731.504 481.899L732.205 481.185L732.205 481.185L731.504 481.899ZM793.866 425.168C794.641 426.02 794.919 427.545 794.33 429.955C793.75 432.328 792.385 435.291 790.299 438.658C786.135 445.379 779.236 453.495 770.576 461.383L771.839 462.938C780.594 454.962 787.631 446.705 791.922 439.779C794.063 436.323 795.555 433.143 796.211 430.46C796.858 427.813 796.75 425.367 795.269 423.738L793.866 425.168ZM793.621 424.933C793.709 425.006 793.79 425.085 793.866 425.168L795.269 423.738C795.133 423.589 794.989 423.45 794.836 423.322L793.621 424.933ZM787.628 418.356L793.527 424.842L794.93 423.412L789.031 416.926L787.628 418.356ZM777.931 428.468L788.961 418.418L787.698 416.864L776.667 426.913L777.931 428.468ZM755.495 444.97C763.266 437.891 771.092 432.236 777.741 428.604L776.857 426.778C770.046 430.499 762.094 436.253 754.232 443.415L755.495 444.97ZM737.123 465.607C741.357 459.325 747.718 452.054 755.495 444.97L754.232 443.415C746.364 450.582 739.888 457.973 735.544 464.419L737.123 465.607ZM725.943 475.832L736.965 465.79L735.702 464.236L724.679 474.278L725.943 475.832ZM731.947 480.865L726.013 474.34L724.609 475.77L730.544 482.295L731.947 480.865ZM732.205 481.185C732.139 481.112 732.078 481.036 732.02 480.956L730.471 482.204C730.573 482.347 730.684 482.484 730.802 482.614L732.205 481.185ZM770.576 461.383C761.918 469.27 753.194 475.387 746.108 478.909C742.56 480.673 739.471 481.762 737.034 482.121C734.55 482.487 733.003 482.061 732.205 481.185L730.802 482.614C732.261 484.218 734.628 484.549 737.291 484.157C740.001 483.758 743.29 482.577 746.927 480.769C754.212 477.147 763.083 470.914 771.839 462.938L770.576 461.383Z" fill="white" mask="url(#path-144-inside-6_182_25257)"/>
<path d="M787.865 417.84C788.823 418.892 789.058 420.662 788.453 423.139C787.852 425.595 786.454 428.616 784.353 432.006C780.157 438.78 773.222 446.932 764.539 454.841C755.856 462.751 747.096 468.896 739.963 472.442C736.393 474.217 733.257 475.327 730.757 475.695C728.236 476.066 726.497 475.666 725.54 474.613C724.582 473.561 724.347 471.791 724.952 469.314C725.553 466.858 726.951 463.837 729.052 460.447C733.248 453.673 740.183 445.521 748.866 437.612C757.549 429.702 766.309 423.557 773.442 420.011C777.012 418.236 780.148 417.126 782.648 416.758C785.169 416.387 786.908 416.787 787.865 417.84Z" fill="black" stroke="white"/>
<mask id="path-147-inside-7_182_25257" fill="white">
<path fill-rule="evenodd" clip-rule="evenodd" d="M122.045 518.445C157.269 497.619 181.17 472.738 175.43 462.871C175.125 462.347 174.742 461.875 174.285 461.456L167.256 449.383L144.881 462.595C132.24 466.531 116.949 473.439 101.258 482.716C85.6639 491.936 72.2887 501.952 62.7225 511.107L40.061 524.488L47.2843 536.894C47.4238 537.387 47.6198 537.853 47.8738 538.29C53.6139 548.157 86.8215 539.272 122.045 518.445Z"/>
</mask>
<path fill-rule="evenodd" clip-rule="evenodd" d="M122.045 518.445C157.269 497.619 181.17 472.738 175.43 462.871C175.125 462.347 174.742 461.875 174.285 461.456L167.256 449.383L144.881 462.595C132.24 466.531 116.949 473.439 101.258 482.716C85.6639 491.936 72.2887 501.952 62.7225 511.107L40.061 524.488L47.2843 536.894C47.4238 537.387 47.6198 537.853 47.8738 538.29C53.6139 548.157 86.8215 539.272 122.045 518.445Z" fill="black"/>
<path d="M175.43 462.871L174.593 463.421L174.593 463.421L175.43 462.871ZM122.045 518.445L121.583 517.557L121.583 517.557L122.045 518.445ZM174.285 461.456L173.448 462.005L173.523 462.134L173.631 462.233L174.285 461.456ZM167.256 449.383L168.093 448.833L167.613 448.01L166.794 448.494L167.256 449.383ZM144.881 462.595L145.136 463.575L145.244 463.542L145.343 463.483L144.881 462.595ZM101.258 482.716L100.796 481.828L101.258 482.716ZM62.7225 511.107L63.1845 511.995L63.2849 511.936L63.3702 511.855L62.7225 511.107ZM40.061 524.488L39.599 523.599L38.6968 524.132L39.2242 525.038L40.061 524.488ZM47.2843 536.894L48.2209 536.58L48.1856 536.455L48.1211 536.344L47.2843 536.894ZM47.8738 538.29L48.7109 537.741L47.8738 538.29ZM174.593 463.421C175.76 465.427 175.532 468.395 173.597 472.339C171.682 476.244 168.215 480.84 163.42 485.831C153.841 495.803 139.14 507.176 121.583 517.557L122.508 519.334C140.174 508.888 155.035 497.407 164.777 487.265C169.643 482.2 173.276 477.423 175.329 473.237C177.362 469.091 177.969 465.249 176.267 462.322L174.593 463.421ZM173.631 462.233C174.02 462.591 174.34 462.986 174.593 463.421L176.267 462.322C175.909 461.707 175.463 461.16 174.939 460.678L173.631 462.233ZM166.419 449.933L173.448 462.005L175.122 460.906L168.093 448.833L166.419 449.933ZM145.343 463.483L167.718 450.271L166.794 448.494L144.419 461.706L145.343 463.483ZM101.721 483.604C117.36 474.358 132.581 467.485 145.136 463.575L144.625 461.614C131.899 465.577 116.539 472.519 100.796 481.828L101.721 483.604ZM63.3702 511.855C72.8683 502.765 86.1777 492.794 101.721 483.604L100.796 481.828C85.1501 491.078 71.7091 501.139 62.0747 510.359L63.3702 511.855ZM40.523 525.376L63.1845 511.995L62.2605 510.218L39.599 523.599L40.523 525.376ZM48.1211 536.344L40.8978 523.938L39.2242 525.038L46.4475 537.443L48.1211 536.344ZM48.7109 537.741C48.5004 537.379 48.3375 536.992 48.2209 536.58L46.3477 537.208C46.5102 537.783 46.7392 538.328 47.0368 538.84L48.7109 537.741ZM121.583 517.557C104.026 527.938 87.0012 535.324 73.6851 538.886C67.0207 540.669 61.338 541.48 57.0044 541.258C52.6204 541.034 49.8925 539.772 48.7109 537.741L47.0368 538.84C48.7252 541.742 52.3008 543.069 56.8583 543.303C61.4663 543.539 67.3632 542.677 74.1212 540.869C87.6497 537.249 104.84 529.78 122.508 519.334L121.583 517.557Z" fill="white" mask="url(#path-147-inside-7_182_25257)"/>
<path d="M166.718 449.144C168.026 451.39 167.704 454.592 165.746 458.594C163.799 462.575 160.293 467.219 155.484 472.229C145.872 482.245 131.139 493.642 113.562 504.032C95.9843 514.422 78.9222 521.82 65.5549 525.388C58.8678 527.173 53.1336 527.991 48.7342 527.762C44.3113 527.532 41.3799 526.253 40.0717 524.007C38.7634 521.76 39.0856 518.559 41.0433 514.556C42.9906 510.575 46.4971 505.932 51.3057 500.921C60.9179 490.905 75.6509 479.509 93.2282 469.118C110.806 458.728 127.868 451.33 141.235 447.762C147.922 445.977 153.656 445.159 158.056 445.388C162.478 445.619 165.41 446.897 166.718 449.144Z" fill="black" stroke="white"/>
</g>
<defs>
<clipPath id="clip0_182_25257">
<rect width="872" height="693" fill="white"/>
</clipPath>
<clipPath id="clip1_182_25257">
<rect width="2071.71" height="2071.71" fill="white" transform="translate(-368.739 -1053.03) rotate(33.1732)"/>
</clipPath>
</defs>
</svg>
