<svg width="414" height="666" viewBox="0 0 414 666" fill="none" xmlns="http://www.w3.org/2000/svg">
<g clip-path="url(#clip0_143_26117)">
<path d="M379.883 176.633L224.509 622.722C220.623 633.881 203.071 664.253 172.145 642.529C193.942 652.043 202.97 632.145 207.215 619.958L361.665 176.523C369.733 153.357 362.448 130.474 352.232 122.627C342.016 114.779 251.113 44.1797 227.674 26.7696C211.002 14.4312 199.912 24.7459 194.883 31.772C204.167 17.95 221.039 6.68683 247.959 27.6087L277.182 50.3863L277.24 50.4072L277.299 50.4281L277.404 50.4658L277.578 50.5285L277.683 50.5661L277.765 50.5954L277.823 50.6163C285.042 56.2318 355.669 111.255 363.021 116.334C370.75 121.879 392.036 141.743 379.883 176.633Z" fill="black" stroke="#0032D3" stroke-miterlimit="10"/>
<path d="M277.404 50.466L277.322 50.4365L277.439 50.4787L277.404 50.466Z" stroke="#FF4300" stroke-miterlimit="10"/>
<path d="M352.232 122.627C342.028 114.783 251.113 44.1797 227.674 26.7697C211.002 14.4313 199.912 24.7459 194.883 31.772C194.824 31.9414 194.676 32.0661 194.586 32.2117C193.639 33.6508 192.774 35.1191 191.994 36.5674C191.958 36.6691 191.931 36.7481 191.907 36.8159C190.238 39.9256 188.817 43.1622 187.657 46.4977L32.7785 491.163C24.1237 516.012 36.4418 537.842 45.4653 545.275C54.4888 552.707 141.257 620.843 172.175 642.553C193.942 652.043 202.97 632.145 207.215 619.957L361.665 176.523C369.733 153.357 362.448 130.474 352.232 122.627ZM299.592 100.364C301.36 100.782 302.358 103.11 301.827 105.575C301.296 108.04 299.434 109.697 297.666 109.279C295.899 108.86 294.901 106.533 295.428 104.079C295.955 101.625 297.816 99.9678 299.592 100.364ZM269.473 80.8733C269.733 80.5612 270.086 80.3378 270.486 80.2335C270.886 80.1291 271.312 80.149 271.708 80.2903C271.927 80.3678 272.131 80.4841 272.309 80.6332L290.066 94.9748C290.446 95.2728 290.708 95.6904 290.807 96.1528C290.905 96.6151 290.833 97.0919 290.603 97.4976C290.374 97.9033 290.001 98.2113 289.553 98.3664C289.105 98.5214 288.611 98.5134 288.159 98.3437C287.942 98.2648 287.737 98.1529 287.554 98.012L269.753 83.6805C269.342 83.3361 269.081 82.8508 269.027 82.3296C268.973 81.8084 269.131 81.2933 269.465 80.8958L269.473 80.8733ZM195.557 619.636C192.28 629.044 181.908 638.053 172.042 631.157C162.176 624.261 54.621 541.039 48.0777 535.78C41.5343 530.521 28.9762 519.126 39.7514 488.19L193.379 47.1158C196.825 37.2216 208.526 27.5966 217.824 34.543C223.958 39.1337 228.477 42.8653 233.023 45.806C237.569 48.7466 239.322 51.015 236.43 59.3166C233.539 67.6183 239.288 73.9518 244.944 77.621C250.599 81.2902 299.504 120.409 307.284 125.654C315.064 130.9 320.89 128.772 322.549 123.408C323.353 120.799 323.809 117.647 326.115 118.475C328.422 119.303 342.192 130.192 345.946 132.81C349.7 135.429 359.999 147.627 352.552 169.008L195.557 619.636Z" fill="black" stroke="#0032D3" stroke-miterlimit="10"/>
<path d="M269.465 80.896C269.724 80.5839 270.078 80.3605 270.478 80.2562C270.878 80.1519 271.304 80.1717 271.699 80.313C271.919 80.3906 272.123 80.5068 272.301 80.656L290.066 94.9749C290.446 95.2729 290.708 95.6905 290.806 96.1529C290.905 96.6153 290.833 97.0921 290.603 97.4978C290.373 97.9035 290.001 98.2115 289.553 98.3665C289.105 98.5216 288.611 98.5135 288.159 98.3438C287.941 98.265 287.737 98.153 287.553 98.0122L269.753 83.6807C269.342 83.3363 269.081 82.8509 269.027 82.3297C268.973 81.8086 269.13 81.2935 269.465 80.896V80.896Z" stroke="#FF4300" stroke-miterlimit="10"/>
<path d="M295.42 104.101C295.951 101.636 297.816 99.9679 299.584 100.386C301.352 100.805 302.349 103.133 301.819 105.598C301.288 108.063 299.426 109.72 297.658 109.302C295.89 108.883 294.893 106.555 295.42 104.101Z" stroke="#FF4300" stroke-miterlimit="10"/>
<path d="M191.872 36.8034C191.854 36.8473 191.838 36.8923 191.825 36.9381" stroke="#FF4300" stroke-miterlimit="10"/>
<path d="M191.994 36.5683C192.744 35.0519 193.61 33.5957 194.585 32.2116" stroke="#FF4300" stroke-miterlimit="10"/>
<path d="M352.517 168.995L195.549 619.659C192.272 629.067 181.9 638.076 172.034 631.18C162.168 624.284 54.6209 541.039 48.0775 535.78C41.5342 530.521 28.976 519.126 39.7513 488.19L193.379 47.116C196.825 37.2217 208.526 27.5968 217.824 34.5431C223.958 39.1338 228.477 42.8655 233.023 45.8062C237.569 48.7468 239.322 51.0151 236.43 59.3168C233.539 67.6185 239.288 73.9519 244.943 77.6212C250.599 81.2904 299.504 120.409 307.284 125.655C315.064 130.9 320.89 128.772 322.549 123.408C323.353 120.8 323.809 117.647 326.115 118.475C328.422 119.303 342.192 130.192 345.945 132.811C349.699 135.429 359.964 147.614 352.517 168.995Z" fill="#77F64D" stroke="#0032D3" stroke-miterlimit="10"/>
<path d="M297.658 109.302C295.887 108.894 294.893 106.555 295.42 104.101C295.947 101.648 297.816 99.9679 299.584 100.386C301.352 100.805 302.349 103.133 301.819 105.598C301.288 108.063 299.426 109.72 297.658 109.302Z" fill="black" stroke="#0032D3" stroke-miterlimit="10"/>
<path d="M290.405 97.765C290.145 98.0801 289.79 98.3052 289.387 98.409C288.984 98.5127 288.555 98.4899 288.159 98.3438C287.941 98.2649 287.737 98.153 287.554 98.0121L269.753 83.6806C269.382 83.3785 269.127 82.961 269.033 82.5011C268.939 82.0413 269.013 81.5685 269.241 81.1655C269.468 80.7625 269.836 80.455 270.279 80.2969C270.723 80.1387 271.213 80.14 271.665 80.3005C271.884 80.378 272.088 80.4942 272.266 80.6434L290.066 94.9749C290.486 95.3125 290.758 95.7954 290.821 96.3181C290.885 96.8409 290.735 97.361 290.405 97.765Z" fill="black" stroke="#0032D3" stroke-miterlimit="10"/>
</g>
<g clip-path="url(#clip1_143_26117)">
<path d="M181.71 274.991L141.882 247.761L127.321 290.168L166.441 319.457L181.71 274.991ZM163.42 280.516L158.411 295.103L145.293 285.568L150.211 271.245L163.42 280.516Z" fill="black"/>
<path d="M250.261 361.86L255.823 345.665L242.625 336.361L237.143 352.325L250.261 361.86Z" fill="black"/>
<path d="M248.099 320.381L234.822 311.308L229.42 327.041L242.614 336.356L248.099 320.381Z" fill="black"/>
<path d="M274.65 338.538L261.376 329.454L255.811 345.661L269.009 354.965L274.65 338.538Z" fill="black"/>
<path d="M237.132 352.321L224.014 342.785L218.608 358.529L231.65 368.285L237.132 352.321Z" fill="black"/>
<path d="M263.368 371.392L250.25 361.856L244.689 378.052L257.728 387.819L263.368 371.392Z" fill="black"/>
<path d="M228.168 306.76L214.895 297.676L209.606 313.079L222.804 322.383L228.168 306.76Z" fill="black"/>
<path d="M217.44 338.006L204.321 328.47L199.036 343.862L212.075 353.629L217.44 338.006Z" fill="black"/>
<path d="M204.325 328.459L209.614 313.057L196.416 303.752L201.618 288.603L188.345 279.52L172.963 324.317L186.001 334.084L191.207 318.923L204.325 328.459Z" fill="black"/>
</g>
<defs>
<clipPath id="clip0_143_26117">
<rect width="225.744" height="611.008" fill="white" transform="matrix(0.94068 0.337669 -0.328792 0.943982 200.895 6.49585)"/>
</clipPath>
<clipPath id="clip1_143_26117">
<rect width="155.177" height="92.1434" fill="white" transform="matrix(0.939303 0.341174 -0.324637 0.945431 141.882 247.761)"/>
</clipPath>
</defs>
</svg>
