<svg width="48" height="45" viewBox="0 0 48 45" fill="none" xmlns="http://www.w3.org/2000/svg">
<rect width="48" height="45" rx="4" fill="#6C6C6C"/>
<g clip-path="url(#clip0_143_26172)">
<path d="M33.374 31.5C33.2048 31.5 33.0583 31.4382 32.9346 31.3145C32.8109 31.1908 32.749 31.0443 32.749 30.875C32.749 30.7057 32.8109 30.5592 32.9346 30.4355C33.0583 30.3118 33.2048 30.25 33.374 30.25C33.5433 30.25 33.6898 30.3118 33.8135 30.4355C33.9372 30.5592 33.999 30.7057 33.999 30.875C33.999 31.0443 33.9372 31.1908 33.8135 31.3145C33.6898 31.4382 33.5433 31.5 33.374 31.5ZM33.374 26.5C33.2048 26.5 33.0583 26.4382 32.9346 26.3145C32.8109 26.1908 32.749 26.0443 32.749 25.875V24.625C32.749 24.4557 32.8109 24.3092 32.9346 24.1855C33.0583 24.0618 33.2048 24 33.374 24C33.5433 24 33.6898 24.0618 33.8135 24.1855C33.9372 24.3092 33.999 24.4557 33.999 24.625V25.875C33.999 26.0443 33.9372 26.1908 33.8135 26.3145C33.6898 26.4382 33.5433 26.5 33.374 26.5ZM33.374 21.5H32.749V22.125C32.749 22.2943 32.6872 22.4408 32.5635 22.5645C32.4398 22.6882 32.2933 22.75 32.124 22.75C31.9548 22.75 31.8083 22.6882 31.6846 22.5645C31.5609 22.4408 31.499 22.2943 31.499 22.125V21.5H28.999V22.125C28.999 22.2943 28.9372 22.4408 28.8135 22.5645C28.6898 22.6882 28.5433 22.75 28.374 22.75H27.749V23.375C27.749 23.5443 27.6872 23.6908 27.5635 23.8145C27.4398 23.9382 27.2933 24 27.124 24C26.9548 24 26.8083 23.9382 26.6846 23.8145C26.5609 23.6908 26.499 23.5443 26.499 23.375V19H24.624C24.4548 19 24.3083 18.9382 24.1846 18.8145C24.0609 18.6908 23.999 18.5443 23.999 18.375C23.999 18.2057 24.0609 18.0592 24.1846 17.9355C24.3083 17.8118 24.4548 17.75 24.624 17.75H26.499V15.25H25.249V15.875C25.249 16.0443 25.1872 16.1908 25.0635 16.3145C24.9398 16.4382 24.7933 16.5 24.624 16.5C24.4548 16.5 24.3083 16.4382 24.1846 16.3145C24.0609 16.1908 23.999 16.0443 23.999 15.875V14.625C23.999 14.4557 24.0609 14.3092 24.1846 14.1855C24.3083 14.0618 24.4548 14 24.624 14H33.374C33.5433 14 33.6898 14.0618 33.8135 14.1855C33.9372 14.3092 33.999 14.4557 33.999 14.625V20.875C33.999 21.0443 33.9372 21.1908 33.8135 21.3145C33.6898 21.4382 33.5433 21.5 33.374 21.5ZM32.749 15.875C32.749 15.7057 32.6872 15.5592 32.5635 15.4355C32.4398 15.3118 32.2933 15.25 32.124 15.25H28.374C28.2048 15.25 28.0583 15.3118 27.9346 15.4355C27.8109 15.5592 27.749 15.7057 27.749 15.875V19.625C27.749 19.7943 27.8109 19.9408 27.9346 20.0645C28.0583 20.1882 28.2048 20.25 28.374 20.25H32.124C32.2933 20.25 32.4398 20.1882 32.5635 20.0645C32.6872 19.9408 32.749 19.7943 32.749 19.625V15.875ZM30.874 19H29.624C29.4548 19 29.3083 18.9382 29.1846 18.8145C29.0609 18.6908 28.999 18.5443 28.999 18.375V17.125C28.999 16.9557 29.0609 16.8092 29.1846 16.6855C29.3083 16.5618 29.4548 16.5 29.624 16.5H30.874C31.0433 16.5 31.1898 16.5618 31.3135 16.6855C31.4372 16.8092 31.499 16.9557 31.499 17.125V18.375C31.499 18.5443 31.4372 18.6908 31.3135 18.8145C31.1898 18.9382 31.0433 19 30.874 19ZM23.999 20.25H24.624C24.7933 20.25 24.9398 20.3118 25.0635 20.4355C25.1872 20.5592 25.249 20.7057 25.249 20.875C25.249 21.0443 25.1872 21.1908 25.0635 21.3145C24.9398 21.4382 24.7933 21.5 24.624 21.5H22.749V22.125C22.749 22.2943 22.6872 22.4408 22.5635 22.5645C22.4398 22.6882 22.2933 22.75 22.124 22.75C21.9548 22.75 21.8083 22.6882 21.6846 22.5645C21.5609 22.4408 21.499 22.2943 21.499 22.125V21.5H17.749V22.75H18.999V22.125C18.999 21.9557 19.0609 21.8092 19.1846 21.6855C19.3083 21.5618 19.4548 21.5 19.624 21.5C19.7933 21.5 19.9398 21.5618 20.0635 21.6855C20.1872 21.8092 20.249 21.9557 20.249 22.125V24H20.874C21.0433 24 21.1898 24.0618 21.3135 24.1855C21.4372 24.3092 21.499 24.4557 21.499 24.625C21.499 24.7943 21.4372 24.9408 21.3135 25.0645C21.1898 25.1882 21.0433 25.25 20.874 25.25H19.624C19.4548 25.25 19.3083 25.1882 19.1846 25.0645C19.0609 24.9408 18.999 24.7943 18.999 24.625V24H17.124C16.9548 24 16.8083 23.9447 16.6846 23.834C16.5609 23.7233 16.499 23.5898 16.499 23.4336V21.5H15.249V22.1836C15.249 22.3398 15.1872 22.4733 15.0635 22.584C14.9398 22.6947 14.7933 22.75 14.624 22.75C14.4548 22.75 14.3083 22.6947 14.1846 22.584C14.0609 22.4733 13.999 22.3398 13.999 22.1836V21.0117C13.999 20.9857 14.0055 20.9596 14.0186 20.9336C14.0186 20.9206 14.0153 20.9108 14.0088 20.9043C14.0023 20.8978 13.999 20.888 13.999 20.875V14.625C13.999 14.4557 14.0609 14.3092 14.1846 14.1855C14.3083 14.0618 14.4548 14 14.624 14H20.874C21.0433 14 21.1898 14.0618 21.3135 14.1855C21.4372 14.3092 21.499 14.4557 21.499 14.625V15.25H22.124C22.2933 15.25 22.4398 15.3118 22.5635 15.4355C22.6872 15.5592 22.749 15.7057 22.749 15.875C22.749 16.0443 22.6872 16.1908 22.5635 16.3145C22.4398 16.4382 22.2933 16.5 22.124 16.5H21.499V17.75H22.124C22.2933 17.75 22.4398 17.8118 22.5635 17.9355C22.6872 18.0592 22.749 18.2057 22.749 18.375C22.749 18.5443 22.6872 18.6908 22.5635 18.8145C22.4398 18.9382 22.2933 19 22.124 19H21.499V20.25H22.749V19.625C22.749 19.4557 22.8109 19.3092 22.9346 19.1855C23.0583 19.0618 23.2048 19 23.374 19C23.5433 19 23.6898 19.0618 23.8135 19.1855C23.9372 19.3092 23.999 19.4557 23.999 19.625V20.25ZM20.249 15.875C20.249 15.7057 20.1872 15.5592 20.0635 15.4355C19.9398 15.3118 19.7933 15.25 19.624 15.25H15.874C15.7048 15.25 15.5583 15.3118 15.4346 15.4355C15.3109 15.5592 15.249 15.7057 15.249 15.875V19.625C15.249 19.7943 15.3109 19.9408 15.4346 20.0645C15.5583 20.1882 15.7048 20.25 15.874 20.25H19.624C19.7933 20.25 19.9398 20.1882 20.0635 20.0645C20.1872 19.9408 20.249 19.7943 20.249 19.625V15.875ZM18.374 19H17.124C16.9548 19 16.8083 18.9382 16.6846 18.8145C16.5609 18.6908 16.499 18.5443 16.499 18.375V17.125C16.499 16.9557 16.5609 16.8092 16.6846 16.6855C16.8083 16.5618 16.9548 16.5 17.124 16.5H18.374C18.5433 16.5 18.6898 16.5618 18.8135 16.6855C18.9372 16.8092 18.999 16.9557 18.999 17.125V18.375C18.999 18.5443 18.9372 18.6908 18.8135 18.8145C18.6898 18.9382 18.5433 19 18.374 19ZM14.624 24C14.7933 24 14.9398 24.0618 15.0635 24.1855C15.1872 24.3092 15.249 24.4557 15.249 24.625C15.249 24.7943 15.1872 24.9408 15.0635 25.0645C14.9398 25.1882 14.7933 25.25 14.624 25.25C14.4548 25.25 14.3083 25.1882 14.1846 25.0645C14.0609 24.9408 13.999 24.7943 13.999 24.625C13.999 24.4557 14.0609 24.3092 14.1846 24.1855C14.3083 24.0618 14.4548 24 14.624 24ZM23.374 25.25C23.2048 25.25 23.0583 25.1882 22.9346 25.0645C22.8109 24.9408 22.749 24.7943 22.749 24.625C22.749 24.4557 22.8109 24.3092 22.9346 24.1855C23.0583 24.0618 23.2048 24 23.374 24C23.5433 24 23.6898 24.0618 23.8135 24.1855C23.9372 24.3092 23.999 24.4557 23.999 24.625C23.999 24.7943 23.9372 24.9408 23.8135 25.0645C23.6898 25.1882 23.5433 25.25 23.374 25.25ZM24.624 22.75C24.7933 22.75 24.9398 22.8118 25.0635 22.9355C25.1872 23.0592 25.249 23.2057 25.249 23.375C25.249 23.5443 25.1872 23.6908 25.0635 23.8145C24.9398 23.9382 24.7933 24 24.624 24C24.4548 24 24.3083 23.9382 24.1846 23.8145C24.0609 23.6908 23.999 23.5443 23.999 23.375C23.999 23.2057 24.0609 23.0592 24.1846 22.9355C24.3083 22.8118 24.4548 22.75 24.624 22.75ZM28.999 23.375C28.999 23.2057 29.0609 23.0592 29.1846 22.9355C29.3083 22.8118 29.4548 22.75 29.624 22.75C29.7933 22.75 29.9398 22.8118 30.0635 22.9355C30.1872 23.0592 30.249 23.2057 30.249 23.375C30.249 23.5443 30.1872 23.6908 30.0635 23.8145C29.9398 23.9382 29.7933 24 29.624 24C29.4548 24 29.3083 23.9382 29.1846 23.8145C29.0609 23.6908 28.999 23.5443 28.999 23.375ZM14.624 26.5H16.499V25.875C16.499 25.7057 16.5609 25.5592 16.6846 25.4355C16.8083 25.3118 16.9548 25.25 17.124 25.25C17.2933 25.25 17.4398 25.3118 17.5635 25.4355C17.6872 25.5592 17.749 25.7057 17.749 25.875V26.5H20.874C21.0433 26.5 21.1898 26.5618 21.3135 26.6855C21.4372 26.8092 21.499 26.9557 21.499 27.125V25.875C21.499 25.7057 21.5609 25.5592 21.6846 25.4355C21.8083 25.3118 21.9548 25.25 22.124 25.25C22.2933 25.25 22.4398 25.3118 22.5635 25.4355C22.6872 25.5592 22.749 25.7057 22.749 25.875V27.125H25.249V25.875C25.249 25.7057 25.3109 25.5592 25.4346 25.4355C25.5583 25.3118 25.7048 25.25 25.874 25.25H30.249V24.625C30.249 24.4557 30.3109 24.3092 30.4346 24.1855C30.5583 24.0618 30.7048 24 30.874 24C31.0433 24 31.1898 24.0618 31.3135 24.1855C31.4372 24.3092 31.499 24.4557 31.499 24.625V27.75H32.124C32.2933 27.75 32.4398 27.8118 32.5635 27.9355C32.6872 28.0592 32.749 28.2057 32.749 28.375C32.749 28.5443 32.6872 28.6908 32.5635 28.8145C32.4398 28.9382 32.2933 29 32.124 29H31.499V30.875C31.499 31.0443 31.4372 31.1908 31.3135 31.3145C31.1898 31.4382 31.0433 31.5 30.874 31.5H28.999V33.375C28.999 33.5443 28.9372 33.6908 28.8135 33.8145C28.6898 33.9382 28.5433 34 28.374 34C28.2048 34 28.0583 33.9382 27.9346 33.8145C27.8109 33.6908 27.749 33.5443 27.749 33.375V31.5H26.499V32.125C26.499 32.2943 26.4372 32.4408 26.3135 32.5645C26.1898 32.6882 26.0433 32.75 25.874 32.75C25.7048 32.75 25.5583 32.6882 25.4346 32.5645C25.3109 32.4408 25.249 32.2943 25.249 32.125V31.5H24.624C24.4548 31.5 24.3083 31.4382 24.1846 31.3145C24.0609 31.1908 23.999 31.0443 23.999 30.875C23.999 30.7057 24.0609 30.5592 24.1846 30.4355C24.3083 30.3118 24.4548 30.25 24.624 30.25H25.249V28.375H21.499V31.5H22.124C22.2933 31.5 22.4398 31.5618 22.5635 31.6855C22.6872 31.8092 22.749 31.9557 22.749 32.125C22.749 32.2943 22.6872 32.4408 22.5635 32.5645C22.4398 32.6882 22.2933 32.75 22.124 32.75H21.499V33.375C21.499 33.5443 21.4372 33.6908 21.3135 33.8145C21.1898 33.9382 21.0433 34 20.874 34H14.624C14.4548 34 14.3083 33.9382 14.1846 33.8145C14.0609 33.6908 13.999 33.5443 13.999 33.375V27.125C13.999 26.9557 14.0609 26.8092 14.1846 26.6855C14.3083 26.5618 14.4548 26.5 14.624 26.5ZM27.124 30.25H29.624C29.7933 30.25 29.9398 30.1882 30.0635 30.0645C30.1872 29.9408 30.249 29.7943 30.249 29.625V27.125C30.249 26.9557 30.1872 26.8092 30.0635 26.6855C29.9398 26.5618 29.7933 26.5 29.624 26.5H27.124C26.9548 26.5 26.8083 26.5618 26.6846 26.6855C26.5609 26.8092 26.499 26.9557 26.499 27.125V29.625C26.499 29.7943 26.5609 29.9408 26.6846 30.0645C26.8083 30.1882 26.9548 30.25 27.124 30.25ZM15.249 32.125C15.249 32.2943 15.3109 32.4408 15.4346 32.5645C15.5583 32.6882 15.7048 32.75 15.874 32.75H19.624C19.7933 32.75 19.9398 32.6882 20.0635 32.5645C20.1872 32.4408 20.249 32.2943 20.249 32.125V28.375C20.249 28.2057 20.1872 28.0592 20.0635 27.9355C19.9398 27.8118 19.7933 27.75 19.624 27.75H15.874C15.7048 27.75 15.5583 27.8118 15.4346 27.9355C15.3109 28.0592 15.249 28.2057 15.249 28.375V32.125ZM17.124 29H18.374C18.5433 29 18.6898 29.0618 18.8135 29.1855C18.9372 29.3092 18.999 29.4557 18.999 29.625V30.875C18.999 31.0443 18.9372 31.1908 18.8135 31.3145C18.6898 31.4382 18.5433 31.5 18.374 31.5H17.124C16.9548 31.5 16.8083 31.4382 16.6846 31.3145C16.5609 31.1908 16.499 31.0443 16.499 30.875V29.625C16.499 29.4557 16.5609 29.3092 16.6846 29.1855C16.8083 29.0618 16.9548 29 17.124 29ZM28.374 27.75C28.5433 27.75 28.6898 27.8118 28.8135 27.9355C28.9372 28.0592 28.999 28.2057 28.999 28.375C28.999 28.5443 28.9372 28.6908 28.8135 28.8145C28.6898 28.9382 28.5433 29 28.374 29C28.2048 29 28.0583 28.9382 27.9346 28.8145C27.8109 28.6908 27.749 28.5443 27.749 28.375C27.749 28.2057 27.8109 28.0592 27.9346 27.9355C28.0583 27.8118 28.2048 27.75 28.374 27.75ZM23.374 29C23.5433 29 23.6898 29.0618 23.8135 29.1855C23.9372 29.3092 23.999 29.4557 23.999 29.625C23.999 29.7943 23.9372 29.9408 23.8135 30.0645C23.6898 30.1882 23.5433 30.25 23.374 30.25C23.2048 30.25 23.0583 30.1882 22.9346 30.0645C22.8109 29.9408 22.749 29.7943 22.749 29.625C22.749 29.4557 22.8109 29.3092 22.9346 29.1855C23.0583 29.0618 23.2048 29 23.374 29ZM24.624 32.75C24.7933 32.75 24.9398 32.8118 25.0635 32.9355C25.1872 33.0592 25.249 33.2057 25.249 33.375C25.249 33.5443 25.1872 33.6908 25.0635 33.8145C24.9398 33.9382 24.7933 34 24.624 34C24.4548 34 24.3083 33.9382 24.1846 33.8145C24.0609 33.6908 23.999 33.5443 23.999 33.375C23.999 33.2057 24.0609 33.0592 24.1846 32.9355C24.3083 32.8118 24.4548 32.75 24.624 32.75ZM30.874 32.75H31.499V32.125C31.499 31.9557 31.5609 31.8092 31.6846 31.6855C31.8083 31.5618 31.9548 31.5 32.124 31.5C32.2933 31.5 32.4398 31.5618 32.5635 31.6855C32.6872 31.8092 32.749 31.9557 32.749 32.125V32.75H33.374C33.5433 32.75 33.6898 32.8118 33.8135 32.9355C33.9372 33.0592 33.999 33.2057 33.999 33.375C33.999 33.5443 33.9372 33.6908 33.8135 33.8145C33.6898 33.9382 33.5433 34 33.374 34H30.874C30.7048 34 30.5583 33.9382 30.4346 33.8145C30.3109 33.6908 30.249 33.5443 30.249 33.375C30.249 33.2057 30.3109 33.0592 30.4346 32.9355C30.5583 32.8118 30.7048 32.75 30.874 32.75Z" fill="#EFEFEF"/>
</g>
<defs>
<clipPath id="clip0_143_26172">
<rect width="20" height="20" fill="white" transform="translate(14 14)"/>
</clipPath>
</defs>
</svg>
