<svg width="29" height="28" viewBox="0 0 29 28" fill="none" xmlns="http://www.w3.org/2000/svg">
<path d="M24.4355 0H5.18555C2.7693 0 0.810547 1.95875 0.810547 4.375V23.625C0.810547 26.0412 2.7693 28 5.18555 28H24.4355C26.8518 28 28.8105 26.0412 28.8105 23.625V4.375C28.8105 1.95875 26.8518 0 24.4355 0Z" fill="white"/>
<path d="M17.521 7.44864C18.2426 6.63396 18.7302 5.50208 18.5975 4.375C17.5574 4.41409 16.298 5.01858 15.551 5.83227C14.8819 6.55431 14.2971 7.70453 14.4533 8.81118C15.6141 8.89535 16.7983 8.26172 17.521 7.44864Z" fill="black"/>
<path d="M20.1252 14.6038C20.1004 12.2455 22.1217 11.0744 22.3425 10.9465L22.3587 10.9371C21.1435 9.28337 19.2501 9.05642 18.5769 9.03053C17.5924 8.93749 16.6369 9.28822 15.856 9.57481C15.3599 9.75691 14.9344 9.9131 14.6168 9.9131C14.2635 9.9131 13.8265 9.75159 13.3361 9.57032C12.6946 9.33322 11.9616 9.06231 11.2049 9.07475C9.44873 9.09912 7.83022 10.0253 6.92631 11.4889C5.10251 14.4339 6.45963 18.7984 8.23719 21.1889C9.10612 22.3574 10.1421 23.6718 11.5013 23.6237C12.1096 23.6014 12.5421 23.4299 12.9894 23.2524C13.5055 23.0477 14.0413 22.8352 14.8895 22.8352C15.6998 22.8352 16.2118 23.0414 16.7041 23.2397C17.1745 23.4291 17.6268 23.6112 18.3038 23.5993C19.7128 23.5756 20.6058 22.4088 21.4679 21.236C22.4049 19.9614 22.8239 18.7244 22.892 18.5235L22.9009 18.4977L22.8932 18.4947C22.7315 18.4325 20.1528 17.4402 20.1252 14.6038Z" fill="black"/>
</svg>
