<svg width="55" height="28" viewBox="0 0 55 28" fill="none" xmlns="http://www.w3.org/2000/svg">
<path d="M21.635 20.8993H18.0447L20.2885 7.10908H23.8792L21.635 20.8993ZM15.0243 7.10908L11.6014 16.5941L11.1964 14.5516L11.1968 14.5523L9.98868 8.35074C9.98868 8.35074 9.84261 7.10908 8.28556 7.10908H2.62695L2.56055 7.34259C2.56055 7.34259 4.29096 7.70261 6.31611 8.91881L9.43536 20.8997H13.1762L18.8883 7.10908H15.0243ZM43.2639 20.8993H46.5605L43.6862 7.10872H40.8001C39.4674 7.10872 39.1427 8.13642 39.1427 8.13642L33.7881 20.8993H37.5307L38.2792 18.8509H42.8433L43.2639 20.8993ZM39.3132 16.0212L41.1996 10.8606L42.2609 16.0212H39.3132ZM34.0688 10.4253L34.5812 7.46395C34.5812 7.46395 33.0002 6.86267 31.352 6.86267C29.5703 6.86267 25.3393 7.64138 25.3393 11.4279C25.3393 14.9906 30.3051 15.0348 30.3051 16.9061C30.3051 18.7775 25.8509 18.4422 24.3809 17.2621L23.8471 20.3585C23.8471 20.3585 25.4503 21.1372 27.8996 21.1372C30.3497 21.1372 34.0459 19.8686 34.0459 16.4159C34.0459 12.8304 29.0354 12.4965 29.0354 10.9377C29.0358 9.37844 32.5324 9.57874 34.0688 10.4253Z" fill="#2566AF"/>
<path d="M11.1968 14.5522L9.98874 8.35054C9.98874 8.35054 9.84267 7.10889 8.28561 7.10889H2.62695L2.56055 7.34239C2.56055 7.34239 5.28032 7.90604 7.88906 10.0179C10.3834 12.0364 11.1968 14.5522 11.1968 14.5522Z" fill="#E6A540"/>
</svg>
